<?xml version="1.0" encoding="utf-8"?>
<!-- Generator: Adobe Illustrator 24.0.1, SVG Export Plug-In . SVG Version: 6.00 Build 0)  -->
<svg version="1.1" id="Calque_1" xmlns="http://www.w3.org/2000/svg" xmlns:xlink="http://www.w3.org/1999/xlink" x="0px" y="0px"
	 viewBox="0 0 2500 2438" style="enable-background:new 0 0 2500 2438;" xml:space="preserve">
<style type="text/css">
	.st0{fill:#FCE14B;}
	.st1{fill:#FFFFFF;}
</style>
<path class="st0" d="M0,0.2v2437.5h2500V0.2H0z M2395.8,2333.6H104.2V104.4h2291.7V2333.6z"/>
<path class="st1" d="M1719.8,843c-224,0-351,201-351,446.9c0,226,103.1,429.2,378.1,429.2c85.4,0,154.2-12.5,209.4-39.6
	c7.3-5.2,10.4-10.4,10.4-20.8v-130.2c0-9.4-5.2-10.4-12.5-7.3c-55.2,24-108.3,32.3-169.8,32.3c-157.5,0-224.3-93.9-227-233.3h272.9
	c91.7,0,153.1-4.2,174-7.3c8.3-2.1,11.5-5.2,13.5-13.5c5.2-19.8,8.3-60.4,8.3-110.4C2026.1,1033.6,1946.9,843,1719.8,843z
	 M1845.8,1173.2c-5.2,2.1-24,2.1-77.1,2.1h-209.4c10.4-92.7,53.1-180.2,153.1-180.2c108.3,0,135.4,104.2,135.4,160.4
	C1847.9,1160.7,1845.8,1165.9,1845.8,1173.2z"/>
<path class="st1" d="M1321.9,1689.8L990.6,568c-2.1-8.3-5.2-10.4-12.5-10.4H759.4c-5.2,0-8.3,3.1-8.3,10.4
	c-2.1,52.1-5.2,66.7-10.4,85.4L444.8,1687.8c-2.1,12.5,0,15.6,10.4,15.6h153.1c10.4,0,13.5-3.1,15.6-11.5l82.3-311.5v0h334.4
	L1126,1693c2.1,7.3,7.3,10.4,15.6,10.4h171.9C1321.9,1703.4,1324,1698.2,1321.9,1689.8z M749,1211.7
	c42.7-161.5,100-367.7,121.9-489.6h2.1c26,121.9,96.9,374,126,489.6H749z"/>
</svg>
