<?xml version="1.0" encoding="utf-8"?>
<!-- Generator: Adobe Illustrator 24.0.1, SVG Export Plug-In . SVG Version: 6.00 Build 0)  -->
<svg version="1.1" id="Calque_1" xmlns="http://www.w3.org/2000/svg" xmlns:xlink="http://www.w3.org/1999/xlink" x="0px" y="0px"
	 viewBox="0 0 512 512" style="enable-background:new 0 0 512 512;" xml:space="preserve">
<style type="text/css">
	.st0{fill-rule:evenodd;clip-rule:evenodd;fill:#FFFFFF;}
	.st1{fill-rule:evenodd;clip-rule:evenodd;fill:#FCE14B;}
</style>
<g>
	<path class="st0" d="M160.6,384.3C143.9,368,127.2,351.2,111,335c-16.2-16.2-32.9-33-49.5-49.2l-3.1-3.1l3-3.2
		c5.2-5.6,10.7-11,16.1-16.3c5.3-5.2,10.7-10.6,15.8-16l2.9-3.2l3.3,2.8c7.6,6.5,14.5,13.6,21.3,20.5c2.9,2.9,5.7,5.9,8.7,8.8V100.9
		c0-35.1,7-58.8,22.1-74.6c14.8-15.6,37.6-23.6,71.8-25.4C234.5,0.3,245.3,0,255.3,0c40.4,0,70.5,5,89.7,14.8
		c16.1,8.3,27.4,20.1,34.4,36.1c6.8,15.5,9.6,34.7,8.3,58.7l-0.2,4.2h-78.8l0.4-4.9c1.8-19.7-1.1-34.1-8.6-42.8
		c-5.1-6.1-12.4-9.4-22.1-10.1c-3.7-0.3-7.8-0.4-12.5-0.4c-4.3,0-8.6,0.1-12.8,0.2c-3.7,0.1-7.4,0.2-11.1,0.2
		c-28.5,0.2-42,12.1-43.8,38.6c-1.4,19.9-0.9,40.1-0.5,61.6c0.2,11,0.5,22.4,0.5,34.2v71.7c0,1.4-0.1,3.6-0.3,6.4
		c-0.1,2-0.3,5.1-0.4,8c0.2-0.3,0.5-0.5,0.8-0.8c0.7-0.7,1-1.1,1.2-1.3c3.2-3.2,6.4-6.3,9.5-9.4c6.2-6,12-11.7,17.7-17.9l3-3.3
		l3.3,3.1c5.6,5.2,11,10.7,16.3,16c5.2,5.3,10.6,10.7,16,15.8l3.4,3.1l-3.2,3.3c-16.3,16.7-33.1,33.4-49.3,49.6
		c-16.2,16.2-33,32.8-49.2,49.5l-3.1,3.2L160.6,384.3L160.6,384.3z"/>
	<path class="st1" d="M262.3,512c-29.2,0-53.2-0.5-73.9-6.1c-22.6-6.2-39.4-17.8-50-34.4c-11-17.2-15.5-40.4-13.5-68.8l0.3-4.2h78.6
		l-0.3,4.8c-2.4,34.4,6.5,50.8,28.8,53c2.6,0.3,5.8,0.4,9.6,0.4c3.5,0,7.2-0.1,10.9-0.2c3.8-0.1,7.7-0.2,11.4-0.2
		c21.6,0,34.8-2.1,42.6-13.5c7.1-10.4,7.7-25.5,7.7-45.7V236.2c-6.6,6.7-13.7,13.9-20.7,21c-2.7,2.8-5.4,5.5-8,8.2l-2.9,3l-3.2-2.7
		c-6.7-5.5-12.7-11.8-18.5-17.8c-4.5-4.6-9.1-9.4-13.9-13.7l-3.4-3.1l3.2-3.3c23.8-24.9,48.6-49.6,72.7-73.4
		c8.5-8.4,17.3-17.2,25.9-25.8l3.1-3.1l3.2,3.1c16.6,16.2,33.2,32.9,49.3,49.1c16.1,16.1,32.7,32.8,49.2,49l3.1,3l-2.8,3.2
		c-10.3,11.5-21.2,22.4-32.7,32.7l-3.2,2.8l-3-3c-3.1-3.1-6.3-6.4-9.3-9.5c-6.4-6.6-12.9-13.3-19.3-19.3v149.1c0,2.5,0,5,0,7.4
		c0.1,25.1,0.1,48.9-6.2,67.6c-6.7,19.9-20.8,34.2-41.9,42.6C314.6,511.3,287.9,512,262.3,512L262.3,512z"/>
</g>
</svg>
