<?xml version="1.0" encoding="utf-8"?>
<!-- Generator: Adobe Illustrator 24.0.1, SVG Export Plug-In . SVG Version: 6.00 Build 0)  -->
<svg version="1.1" id="Capa_1" xmlns="http://www.w3.org/2000/svg" xmlns:xlink="http://www.w3.org/1999/xlink" x="0px" y="0px"
	 viewBox="0 0 55.3 55.3" style="enable-background:new 0 0 55.3 55.3;" xml:space="preserve">
<style type="text/css">
	.st0{fill:#FCE14B;}
	.st1{fill:#FFFFFF;}
</style>
<g>
	<path class="st0" d="M0.5,51.9L0,54c0,0.1,0,0.1,0,0.2c0,0,0,0,0,0c0,0.1,0,0.2,0.1,0.3c0,0,0,0,0,0.1c0,0.1,0.1,0.2,0.2,0.3
		c0.1,0.1,0.2,0.2,0.3,0.2s0.3,0.1,0.4,0.1c0.1,0,0.2,0,0.2,0l2.1-0.5L0.5,51.9z"/>
	<path class="st1" d="M52.6,2.6c-3.5-3.5-9.2-3.5-12.7,0L3.8,38.7c0,0,0,0,0,0.1c0,0,0,0-0.1,0.1c-0.1,0.1-0.1,0.2-0.1,0.2
		c0,0,0,0,0,0.1c0,0,0,0,0,0L1.1,49.6l4.5,4.5l10.5-2.5c0,0,0.1,0,0.1,0c0,0,0.1,0,0.1,0c0.1,0,0.1-0.1,0.2-0.1c0,0,0,0,0.1-0.1
		c0,0,0,0,0,0l36.1-36.1C56.1,11.8,56.1,6.1,52.6,2.6z M17.2,48l0.4-3.2l22.4-22.4c0.4-0.4,0.4-1,0-1.4s-1-0.4-1.4,0L16.1,43.4
		l-4.8,0.5l0.5-4.8l22.4-22.4c0.4-0.4,0.4-1,0-1.4s-1-0.4-1.4,0L10.4,37.7l-3.2,0.4l27.7-27.7l9.9,9.9L17.2,48z M46.3,18.9L36.4,9
		l1.4-1.4l9.9,9.9L46.3,18.9z M49.1,16.1l-9.9-9.9l1.4-1.4l9.9,9.9L49.1,16.1z"/>
</g>
</svg>
