<?xml version="1.0" encoding="utf-8"?>
<!-- Generator: Adobe Illustrator 24.0.1, SVG Export Plug-In . SVG Version: 6.00 Build 0)  -->
<svg version="1.1" id="Capa_1" xmlns="http://www.w3.org/2000/svg" xmlns:xlink="http://www.w3.org/1999/xlink" x="0px" y="0px"
	 viewBox="0 0 286 286" style="enable-background:new 0 0 286 286;" xml:space="preserve">
<style type="text/css">
	.st0{fill:#FFFFFF;}
	.st1{fill:#FCE14B;}
</style>
<rect x="27" y="143" class="st0" width="150" height="94"/>
<path class="st1" d="M276,126.2c-2,0-3.9,0.5-5.9,1.6l-41.5,21.7c-0.5,0.3-1.6,0.6-1.6,0.9v-13.8c0-8.3-6.6-14.7-14.8-14.7H208
	c14.3-13,23.4-31.3,23.4-51.8c0-38.1-31-69.1-69-69.1c-33.6,0-61.7,24.2-67.8,56.1C86.1,44.4,71.7,36,55.3,36
	c-26,0-47.1,21.3-47.1,47.3c0,15.9,8,29.7,20.1,38.7H15.4C7.1,122,0,128.4,0,136.7v104.5c0,8.3,7.1,14.7,15.4,14.7H26v14
	c0,8.3,7.4,15,15.6,15h144.2c8.3,0,15.1-6.7,15.1-15v-14h11.2c8.3,0,14.8-6.5,14.8-14.7v-13.8c0,0.3,1.1,0.7,1.6,0.9l41.5,21.7
	c2,1.1,3.9,1.6,5.9,1.6c6,0,10-4.7,10-11.4V137.6C286,130.9,282,126.2,276,126.2z M99.7,99.2c4,8.7,9.9,15.8,17,22.8H82.3
	C90.3,116,96.4,108.4,99.7,99.2z M74,171c0,4.4-3.6,8-8,8H40c-4.4,0-8-3.6-8-8v-11c0-4.4,3.6-8,8-8h26c4.4,0,8,3.6,8,8V171z
	 M170,217c0,4.4-3.6,8-8,8H40c-4.4,0-8-3.6-8-8v-11c0-4.4,3.6-8,8-8h122c4.4,0,8,3.6,8,8V217z"/>
</svg>
