<?xml version="1.0" encoding="utf-8"?>
<!-- Generator: Adobe Illustrator 24.0.1, SVG Export Plug-In . SVG Version: 6.00 Build 0)  -->
<svg version="1.1" id="Calque_1" xmlns="http://www.w3.org/2000/svg" xmlns:xlink="http://www.w3.org/1999/xlink" x="0px" y="0px"
	 viewBox="0 0 2527.8 2527.8" style="enable-background:new 0 0 2527.8 2527.8;" xml:space="preserve">
<style type="text/css">
	.st0{fill:#FFFFFF;}
	.st1{fill:#FCE14B;}
	.st2{fill:#D6BD43;}
	.st3{fill:#EBEBEB;}
</style>
<path class="st0" d="M1767.1,107.4h-146.9L1773,273.3v78.9h-314.8v-92.4H1611L1458.2,93.9v-79h309L1767.1,107.4z M1395.7,107.4
	h-147.1l153,165.9v78.9h-314.9v-92.4h152.8L1086.7,93.9v-79h309V107.4z M1027.9,111.2H869.4V256h158.5v96.3H756.6V14.9h271.3V111.2z
	"/>
<path class="st1" d="M540.5,2314L379.3,506.3h1771l-161.4,1807.4l-725.2,201L540.5,2314z"/>
<path class="st2" d="M1264.8,2361.1l586-162.5l137.8-1544.5h-723.8L1264.8,2361.1z"/>
<path class="st0" d="M1264.8,1309h293.4l20.2-227h-313.6V860.4h556l-5.3,59.5l-54.5,611h-496.2V1309z"/>
<path class="st3" d="M1266,1884.8h-1l-246.9-66.7l-15.8-176.8H779.9l31.1,348.1l454.2,126.4h1.3v-231L1266,1884.8z"/>
<path class="st0" d="M1539.4,1521.2l-26.7,296.7l-247.3,66.7v231l454.5-126l3.3-37.5l38.6-431h-222.4L1539.4,1521.2z"/>
<path class="st3" d="M1265.6,860.4v221.7H730.2l-4.6-49.8l-10.1-112.4l-5.3-59.5L1265.6,860.4z M1264.8,1309v221.7h-244.1l-4.3-49.8
	l-10.1-112.4l-5.3-59.5L1264.8,1309L1264.8,1309z"/>
</svg>
