<?xml version="1.0" encoding="utf-8"?>
<!-- Generator: Adobe Illustrator 24.0.1, SVG Export Plug-In . SVG Version: 6.00 Build 0)  -->
<svg version="1.1" id="Layer_1" xmlns="http://www.w3.org/2000/svg" xmlns:xlink="http://www.w3.org/1999/xlink" x="0px" y="0px"
	 viewBox="0 0 5117.7 5118.9" style="enable-background:new 0 0 5117.7 5118.9;" xml:space="preserve">
<style type="text/css">
	.st0{fill:#FFFFFF;}
	.st1{fill:#FCE14B;}
</style>
<rect x="805.2" y="792.6" class="st0" width="3535.4" height="3365.9"/>
<path class="st1" d="M2636.9,5118.9h-151.7c-7.1-2.6-14.1-3.2-21.2-3.2c-81-3.9-161.4-10.3-241.1-21.2
	c-149.1-19.3-295.7-52.1-438.4-97.7c-244.9-78.4-473.1-190.9-684.6-337.5c-196.1-136.3-369.6-297-520.7-482.1
	c-178.1-217.3-316.9-457.1-415.3-720.6C75.8,3222.6,23.1,2980.3,7,2730.2c-0.6-13.5-2.6-27-7.1-40.5v-264.2
	c4.5-11.6,6.4-23.8,7.1-36c3.2-59.8,9.6-119.6,17.4-178.7c38.6-285.4,123.4-556.1,253.9-812.6c90-176.8,199.3-341.3,327.8-493.1
	c127.3-150.4,270-284.8,428.1-402.4c257.8-191.6,541.3-329.8,851.1-414.6c150.4-41.1,304.1-68.1,459.6-81
	c27.6-2.6,56.6-0.6,84.2-7.1h259.7c19.9,5.8,40.5,2.6,60.4,4.5c102.9,9,205.1,21.9,306.6,41.8c319.5,63,615.8,182.6,889.7,359.3
	c212.8,136.9,400.5,302.1,564.4,494.3c131.8,154.3,243.6,322.1,334.9,503.3c108,214.1,185.1,438.4,228.9,674.3
	c23.1,124.7,40.5,250.7,41.1,378c0,8.4,1.9,17.4,2.6,25.7v151.7c-2.6,9.6-2.6,19.9-3.2,30.2c0,24.4,0,48.9-1.9,73.3
	c-11.6,155.6-36,309.2-74.6,460.9c-73.9,284.8-192.9,549-358.1,792.6c-122.8,181.3-266.1,344.6-430.7,489.2
	c-163.9,144-343.3,265.5-538.1,363.8c-224.4,113.1-460.3,191.6-707.8,234.6c-95.1,16.7-190.9,27.6-287.3,33.4
	C2690.3,5113.8,2663.3,5113.2,2636.9,5118.9L2636.9,5118.9z M1602.6,3897.5c42.4,1.3,90-3.9,137.6-14.1
	c140.8-30.9,260.4-95.1,352.3-208.9c55.9-69.4,102.9-144.6,143.4-223.7c47.6-93.2,87.4-190.3,122.1-288.6
	c42.4-118.9,78.4-240.4,106.1-363.2c15.4-68.8-1.9-111.9-77.8-135.6c-96.4-30.2-193.5-57.2-292.5-79.1
	c-163.9-36-329.1-59.1-497.6-53.4c-47.6,1.9-95.1,7.1-142.1,15.4c-136.3,23.8-252,86.8-346.5,186.4
	c-161.4,169.7-225.6,372.2-185.8,603C979,3665.5,1270.9,3900.1,1602.6,3897.5L1602.6,3897.5z M1874.5,1533.2
	c-1.9,48.2,7.1,100.9,21.9,153.6c28.3,100.3,75.2,192.2,130.5,279c126,197.4,284.8,366.4,457.1,523.3c14.1,12.9,30.9,23.8,48.9,32.1
	c18,9,36,9,54.6,1.3c18-7.7,34.1-18.6,47.6-32.8c59.8-59.1,118.9-118.3,175.5-179.4c79.7-86.8,155.6-176.1,224.4-271.9
	c62.4-86.8,118.3-178.1,159.4-277.1c41.1-98.4,61.1-199.9,47.6-306.6c-22.5-176.1-97.7-325.3-232.1-442.3
	c-158.9-138.1-344-193.4-552.3-162.6C2118.8,900,1873.2,1198.3,1874.5,1533.2L1874.5,1533.2z M3544.6,3893.7
	c16.7-0.6,46.9,0,77.1-4.5c203.1-30.2,363.8-128.6,477-300.8c88.7-135.6,124.7-286.1,108-447.4c-15.4-151.1-76.5-283.5-180-394.7
	c-90-96.4-197.4-163.3-327.2-191.6c-71.4-15.4-144-21.9-216.6-23.1c-86.1-1.3-171.6,6.4-256.5,18
	c-169.7,23.8-335.6,64.3-498.8,115.7c-16.7,5.1-32.1,12.9-45.6,23.8c-17.4,14.1-27,31.5-27,54c0,19.3,1.9,38.6,6.4,57.9
	c10.3,38.6,19.3,77.1,29.6,115.1c47.6,173.6,105.4,343.3,184.5,505.3c45.6,93.2,98.4,181.3,165.9,260.4
	c51.4,59.8,111.2,108.6,182.6,142.7C3321.6,3871.2,3423.1,3896.3,3544.6,3893.7L3544.6,3893.7z"/>
</svg>
