<?xml version="1.0" encoding="utf-8"?>
<!-- Generator: Adobe Illustrator 24.0.1, SVG Export Plug-In . SVG Version: 6.00 Build 0)  -->
<svg version="1.1" id="Calque_1" xmlns="http://www.w3.org/2000/svg" xmlns:xlink="http://www.w3.org/1999/xlink" x="0px" y="0px"
	 viewBox="0 0 2500 2438" style="enable-background:new 0 0 2500 2438;" xml:space="preserve">
<style type="text/css">
	.st0{fill:#FCE14B;}
	.st1{fill:#FFFFFF;}
</style>
<path class="st0" d="M0,0.2v2437.5h2500V0.2H0z M2395.8,2333.6H104.2V104.4h2291.7V2333.6z"/>
<path class="st1" d="M1637.5,869c0-8.3,3.1-12.5,12.5-12.5h163.5c8.3,0,12.5,3.1,12.5,12.5v821.9c0,8.3-2.1,12.5-12.5,12.5h-161.5
	c-10.4,0-13.5-5.2-13.5-13.5V869L1637.5,869L1637.5,869z"/>
<path class="st1" d="M1626,632.5c0-66.7,46.9-106.2,106.3-106.2c63.5,0,106.2,42.7,106.2,106.2c0,68.7-44.8,106.2-108.3,106.2
	C1669.8,738.8,1626,701.3,1626,632.5z"/>
<path class="st1" d="M1483.3,1689.8l-331.2-1124c-2.1-8.3-5.2-10.4-12.5-10.4H920.8c-5.2,0-8.3,3.1-8.3,10.4
	c-2.1,51-5.2,67.7-10.4,86.5L606.3,1687.8c-2.1,12.5,0,15.6,10.4,15.6h153.1c10.4,0,13.5-2.1,15.6-10.4l82.3-312.5H1201l85.4,313.5
	c2.1,7.3,7.3,9.4,15.6,9.4H1475C1483.3,1703.4,1485.4,1698.2,1483.3,1689.8z M910.4,1211.7c43.7-161.5,99-367.7,120.8-489.6h2.1
	c26,121.9,94.8,374,124,489.6H910.4z"/>
</svg>
