<?xml version="1.0" encoding="utf-8"?>
<!-- Generator: Adobe Illustrator 24.0.1, SVG Export Plug-In . SVG Version: 6.00 Build 0)  -->
<svg version="1.1" id="Calque_1" xmlns="http://www.w3.org/2000/svg" xmlns:xlink="http://www.w3.org/1999/xlink" x="0px" y="0px"
	 viewBox="0 0 2500 2438" style="enable-background:new 0 0 2500 2438;" xml:space="preserve">
<style type="text/css">
	.st0{fill:#FCE14B;}
	.st1{fill:#FFFFFF;}
</style>
<path class="st0" d="M0,0.2v2437.5h2500V0.2H0z M2395.8,2333.6H104.2V104.4h2291.7V2333.6z"/>
<path class="st1" d="M1770.8,1539.8v-974c0-5.2-2.1-8.3-10.4-8.3h-168.8c-5.2,0-10.4,3.1-10.4,10.4V845c-20.8-2.1-33.3-2.1-55.2-2.1
	v0c-263.5,0-428.1,193.7-427.1,442.7c0,290.6,164.6,433.3,394.8,433.3c88.5,0,183.3-18.8,272.9-61.5c7.3-4.2,9.4-5.2,9.4-12.5
	C1770.8,1605.5,1770.8,1569,1770.8,1539.8z M1581.3,1539.8c-20.8,9.4-47.9,12.5-74,12.5c-119.8,0-215.6-79.2-215.6-275
	c0-171.9,93.8-275,228.1-275c25,0,45.8,3.1,61.5,10.4V1539.8z"/>
<path class="st1" d="M914.6,1689.8c0,10.4-2.1,13.5-13.5,13.5H740.6c-10.4,0-13.5-5.2-13.5-13.5V571.1c0-10.4,5.2-13.5,13.5-13.5
	h161.5c8.3,0,12.5,3.1,12.5,12.5V1689.8z"/>
</svg>
