<?xml version="1.0" encoding="utf-8"?>
<!-- Generator: Adobe Illustrator 24.0.1, SVG Export Plug-In . SVG Version: 6.00 Build 0)  -->
<svg version="1.1" id="Layer_1" xmlns="http://www.w3.org/2000/svg" xmlns:xlink="http://www.w3.org/1999/xlink" x="0px" y="0px"
	 viewBox="0 0 512 512" style="enable-background:new 0 0 512 512;" xml:space="preserve">
<style type="text/css">
	.st0{fill:#FFFFFF;}
	.st1{fill:#FCE14B;}
</style>
<g>
	<g>
		<path class="st0" d="M476.1,248.4c-4.5,0-8.1,3.6-8.1,8.1v9.4h-49.7h-62.7h-49.7v-85.4h33.5h95.2h33.5v50.2c0,4.5,3.6,8.1,8.1,8.1
			c4.5,0,8.1-3.6,8.1-8.1v-58.2c0-4.4-3.6-8.1-8.1-8.1h-19c17.2-17.9,27-41.8,27-67.3C484.2,43.6,440.6,0,387,0
			s-97.2,43.6-97.2,97.2c0,25.5,9.8,49.4,27,67.3h-19c-4.5,0-8.1,3.6-8.1,8.1V274c0,4.5,3.6,8.1,8.1,8.1h38.3
			c-14.4,1.9-34.1,6.4-49.9,16.9v-1.4c0-4.5-3.6-8.1-8.1-8.1h-34.1v-8.8c0-4.5-3.6-8.1-8.1-8.1H35.9c-4.5,0-8.1,3.6-8.1,8.1v189.4
			c0,4.5,3.6,8.1,8.1,8.1H236c4.5,0,8.1-3.6,8.1-8.1v-8.8h34.1c4.5,0,8.1-3.6,8.1-8.1v-0.3c11.2,5.7,30.1,11.8,61.3,14.2v5.5
			c0,21.7,17.7,39.4,39.4,39.4s39.4-17.7,39.4-39.4v-4.5h7.3c14.6,0,27.3-11.8,27.3-25.2c0-3.7-0.8-7.2-2.2-10.3
			c9.8-3.5,16.8-12.8,16.8-23.8c0-5.6-1.8-10.8-4.9-15c5.4-4.6,8.8-11.5,8.8-19.1c0-9-4.7-16.9-11.8-21.3c2.2-3.7,3.4-8.1,3.4-12.7
			c0-12.9-9.7-23.5-22.1-25c1.2-2.9,1.8-6.1,1.8-9.5c0-11.1-7.2-20.6-17.2-24h42.4c4.5,0,8.1-3.6,8.1-8.1v-17.5
			C484.2,252,480.6,248.4,476.1,248.4z M305.9,97.2c0-44.7,36.4-81.1,81.1-81.1s81.1,36.4,81.1,81.1c0,27.2-13.4,52.1-35.9,67.3
			h-90.4C319.3,149.3,305.9,124.3,305.9,97.2z M227.9,297.5v155.7v8.8h-184V288.7h184L227.9,297.5L227.9,297.5z M270.1,316.9v120.5
			v7.8h-26.1V305.6h26.1V316.9z M363.7,282.1h46.6v6.7v26.6h-46.4v-26.6c0-0.6-0.1-1.2-0.2-1.7V282.1z M410.3,472.6
			c0,12.9-10.5,23.3-23.3,23.3s-23.3-10.5-23.3-23.3v-4.5h9.6h37L410.3,472.6L410.3,472.6z M446,331.4c5,0,9.1,4.1,9.1,9.1
			c0,4.3-3,7.9-7.2,8.9h-57.9c-4.5,0-8.1,3.6-8.1,8.1s3.6,8.1,8.1,8.1h58.6h5.6c5,0,9.1,4.1,9.1,9.1c0,5-4.1,9.1-9.1,9.1h-0.8
			c-0.2,0-0.4,0-0.5,0h-59.9c-4.5,0-8.1,3.6-8.1,8.1s3.6,8.1,8.1,8.1h59.1c4.3,0.9,7.3,4.5,7.3,8.9c0,5-4.1,9.1-9.1,9.1h-11.8
			c-0.3,0-0.6,0-0.9,0.1c-0.4-0.1-0.8-0.1-1.2-0.1h-43.4c-4.5,0-8.1,3.6-8.1,8.1s3.6,8.1,8.1,8.1h43.4c0.3,0,0.6,0,0.9,0
			c4.4,0.7,7.6,4.5,7.6,8.9c0,4.5-5.7,9.1-11.2,9.1h-15.4h-44.7c-0.2,0-0.4,0-0.7,0c-59.5-0.2-81.1-13.4-86.8-17.9V319.9
			c16-17.5,46.7-21.7,61.3-22.8v26.2c0,4.5,3.6,8.1,8.1,8.1h0.2h62.6h7.2L446,331.4L446,331.4z M434.8,306.1c0,4.8-3.7,8.8-8.4,9.2
			v-18.4C431.1,297.3,434.8,301.3,434.8,306.1z"/>
	</g>
</g>
<g>
	<g>
		<path class="st0" d="M200.5,306h-21.1c-4.5,0-8.1,3.6-8.1,8.1s3.6,8.1,8.1,8.1h21.1c4.5,0,8.1-3.6,8.1-8.1S205,306,200.5,306z"/>
	</g>
</g>
<g>
	<g>
		<path class="st1" d="M387,31.4c-4.5,0-8.1,3.6-8.1,8.1s3.6,8.1,8.1,8.1c27.7,0,50.3,22.6,50.3,50.3c0,4.5,3.6,8.1,8.1,8.1
			s8.1-3.6,8.1-8.1C453.4,61.2,423.6,31.4,387,31.4z"/>
	</g>
</g>
</svg>
