<?xml version="1.0" encoding="utf-8"?>
<!-- Generator: Adobe Illustrator 24.0.1, SVG Export Plug-In . SVG Version: 6.00 Build 0)  -->
<svg version="1.1" id="Calque_1" xmlns="http://www.w3.org/2000/svg" xmlns:xlink="http://www.w3.org/1999/xlink" x="0px" y="0px"
	 viewBox="0 0 2500 2500" style="enable-background:new 0 0 2500 2500;" xml:space="preserve">
<style type="text/css">
	.st0{fill-rule:evenodd;clip-rule:evenodd;fill:#FFFFFF;}
	.st1{fill-rule:evenodd;clip-rule:evenodd;fill:#FCE14B;}
</style>
<g>
	<path class="st0" d="M2364.3,1845.3l130.6,0.7c0,0-242.8,329-262.7,355.9c-6.5,8.6-16.2,18-21.2,29.6
		c-12.5,29.2-25.4,93.2-25.4,93.2l-119.5,0.6c0,0,18.6-66.7,17.9-102.2c-0.6-31-16.5-62.1-25.4-93.2c-9-31.5-21.2-93.2-21.2-93.2
		h122.8l17,67.7L2364.3,1845.3"/>
	<path class="st0" d="M2117,1914.7c24.1,14.5,38.9,94.7,38.9,94.7s-126.1,1.9-194.7,1.9h-59.4l-72,313.5h-110.1
		c0,0,68.6-340.6,84.7-402.5c5.2-20,35.9-16.6,87.7-16.6h82.7C2028.3,1905.7,2090.8,1898.9,2117,1914.7 M1604.2,2067.4
		c0,0,3.4-20.1-11.6-43.5c-12.9-19.9-24.7-24.5-58.7-25.5c-95.7-3-93.8,67.9-93.8,67.9L1604.2,2067.4z M1708,1986.2
		c14,50.6-12.7,169.4-12.7,169.4s-139.6-2.4-216.1,0c-23.7,0.7-52.2-2.6-59.4,8.5c-10,15.5,3.6,39.4,15.1,49.5
		c13.2,11.6,39.1,12.9,48.4,14.1c62.1,7.9,191.9,2,191.9,2l-22.5,99.6c0,0-183.6,9.2-275.3-12.7c-18.1-4.4-35.1-13-46.6-25.4
		c-3.1-3.4-5.9-8-8.9-12c-2.4-3.1-9.2-13.6-12.4-21.9c-21-55.9,2.5-162.9,25.4-220.3c2.6-6.6,6-15.1,9.5-22.2
		c4.4-8.9,8.1-19,11.6-24.4c2.4-3.6,5.2-6,7.7-9.5c2.9-4.1,6.1-8.1,9.2-11.6c8.5-9.9,18.1-16.7,29.6-25.4
		c38.2-28.6,107.5-50.9,190.7-42.4c31.4,3.2,78.6,14.4,101.7,46.6C1701.5,1956.7,1704.5,1973.7,1708,1986.2L1708,1986.2z
		 M1202.8,1905.3l106.8-0.6c0,0-59.5,282.3-89.8,420H1097c-85.8,0-162.3,10.6-194.8-50.9c-31.6-59.7-1.5-157.8,12.7-224.5
		c10-47.2,31.1-143.7,31.1-143.7l110.6-1c0,0-31.2,150.2-44.2,225.2c-4.6,26.9-14.2,52.1-4.2,72c9.5,18.9,22.9,20.2,63.5,21.2
		c12.9,0.2,55.1,0,55.1,0L1202.8,1905.3 M703,2108.6c11.1-39.7,27.5-82.8,25.4-118.6c-2.2-38.2-34.4-73.1-55.1-80.5
		c-62.4-22-120.8,8.7-144.1,33.9c-30,32.5-40.2,70.5-50.9,122.8c-7.9,38.9-14.4,79.8,0,110.1c25.5,53.6,105,41.9,190.7,42.4
		C681.8,2184.7,692.4,2146.5,703,2108.6L703,2108.6z M851.3,1951.9c12.2,88.7-34.6,186.6-66.9,271.8c32.9,3,61.7-0.5,63.7,2
		c2.1,3.1-22,101.6-30.5,101.8c-26.1,0.6-112.6,1.4-148.6,1.4c-117.6,0-227.7,7.6-283.8-50.9c-22.7-23.7-38.6-64.5-42.4-93.2
		c-6.4-47.9,1.6-100.6,12.7-144.1c10-39.2,22.9-76.2,42.4-110.1c49.4-86.2,135.3-150.2,279.5-135.5c28,2.9,68.1,15.1,93.2,29.6
		c1.7,1,7.7,5.9,9.2,6.7C813.8,1853.1,844.7,1904.6,851.3,1951.9L851.3,1951.9z M330.8,1905.8c-7.1,32.4-14.2,69.1-21.7,101.2H190.4
		c9.2-35.5,16.2-70.7,25.4-101.7C253.8,1905.3,289.2,1905.8,330.8,1905.8 M186.2,2036.6h114.3c-15,82.7-44.6,216.3-67.7,309.3
		c-14.5,58.1-24.2,100.6-63.6,131.3c-3.5,2.7-5.5,1.5-8.5,4.2c-7.2,6.9-40.7,14.9-59.4,17c-30.1,3.2-64.2,0.4-101.3-0.4
		c9.7-35.5,20.6-78,29.4-109.8c90.3,11,92.6-74.5,110.1-156.7C149.7,2184,180.4,2055.8,186.2,2036.6"/>
	<g>
		<path class="st1" d="M2048.2,1231l-7.6,19.5c-127.6,248.7-354.2,401.2-676.6,408c-150.9,3.1-294.6-35.5-388.5-77.6
			c-202.5-90.9-373.3-259.8-466.1-440.5c-133.7-258.6-157.8-618.5,120-887.1c4.2,0-33.6,58.5-29.4,58.5l-7.6,24.8
			C392,963.1,1008.6,1499.9,1607.7,1438.4C1752.1,1423.5,1935.5,1344.4,2048.2,1231"/>
		<path class="st1" d="M1685.6,971.9c150.9,1.1,308.3-69.5,401.5-168.5c-81.8,207.1-317.9,340.4-634.6,298
			c-265.1-35.5-518.1-302.6-544-570C889.4,337,957.4,220.4,1069,79.8c-39,73.7-53.5,130.7-56.9,167
			C969.7,667.8,1348.7,969.6,1685.6,971.9"/>
		<path class="st1" d="M2071.9,448.9c-23.3,53.9-158.6,155.1-218.1,168.1c-236.1,50.4-387-61.5-466.1-189.1
			c-11.8-19.1-33.6-71.1-37.4-84.1c-30.6-104.3-16.4-262.5,74.9-343.8c-27.5,77.6-31.7,168.1-17.2,226.6
			c8.8,35.5,35.5,97.4,62.3,136.4c48.9,71.1,79.8,88.3,142.5,126.1c28.3,16.8,58.5,30.6,71.4,34.4
			C1744.1,540.6,1869.8,586.8,2071.9,448.9"/>
	</g>
</g>
</svg>
