<?xml version="1.0" encoding="utf-8"?>
<!-- Generator: Adobe Illustrator 24.0.1, SVG Export Plug-In . SVG Version: 6.00 Build 0)  -->
<svg version="1.1" id="Layer_1" xmlns="http://www.w3.org/2000/svg" xmlns:xlink="http://www.w3.org/1999/xlink" x="0px" y="0px"
	 viewBox="0 0 512 512" style="enable-background:new 0 0 512 512;" xml:space="preserve">
<style type="text/css">
	.st0{fill:#FCE14B;}
	.st1{fill:#FFFFFF;}
</style>
<g>
	<path class="st0" d="M210.5,147.1c0.6,2.4,6.1,8.6,14.7,14.2c1.2,0.8,2.4,1.6,3.4,2.3c4.8,3.2,6.9,4.6,10.3,4.1
		c5-0.7,23.6-11.9,31.5-16.7l2-1.2c2.9-1.8,5.3-3,7.2-4c3.8-2,4.1-2.3,4.2-3c-0.4-1.1-3.9-4.1-10.6-6.4c-2.1-0.8-5.2-2-8.7-3.4
		c-7.6-3-18-7.2-22.2-7.9c-0.2,0-0.3,0-0.5,0c-3.6,0-10.8,4.5-18,11.2C220.2,139.5,213.3,144.9,210.5,147.1z"/>
	<path class="st0" d="M147.1,395.5c-3.1-5.2-5.8-9.7-7.3-12c-5.7-8.9-15.7-18.9-20.4-18.9c-0.4,0-0.6,0.1-0.8,0.2
		c-2.5,1.4-4.7,5.8-6.7,10.1c-2.8,5.9-6.1,12.5-12,16.1c-4.4,2.7-11.2,4.1-17.7,5.6c-4.6,1-15.5,3.4-16,5.6c-0.7,3,0,6,0.8,9.9
		c1,4.6,2.2,10.3,1.2,17.3c-0.7,4.4-2.1,8.6-3.4,12.6c-1.8,5.6-3.8,12-2.1,14c2.2,1.9,15.2,4,24.7,5.6c12,1.9,24.4,3.9,31.9,7.1
		l2,0.8c13.6,5.7,38.9,16.3,51.6,16.3c1.2,0,2.2-0.1,3-0.3c2.2-1.5,11.5-8.2,13.3-16.4c2.4-10.6-7.3-23-13.3-29.4
		C169.3,432.5,156.5,411.1,147.1,395.5z"/>
	<path class="st0" d="M435.8,421l-1.6-0.8c-10.7-5.6-16.3-21-15.6-32.5c0.1-2.1-0.1-3.8-0.6-5c-2,3.2-4.8,7.3-8.1,10.7
		c-5.7,5.7-19.6,11.8-32.1,11.8c-4.7,0-8.9-0.8-12.7-2.4c-12.5-5.5-14.2-21.1-14.2-28.9c-0.2,0.1-0.4,0.1-0.5,0.2
		c-0.8,2.7,0,11.8,0.5,17.9c0.3,3.3,0.5,6.7,0.7,9.8c0.7,13.7-3.7,37-7.4,54c-3.6,16.7,3.1,28.5,11.2,31c0.7,0.2,1.6,0.3,2.5,0.3
		c7.5,0,19.9-7.7,30.8-19.3c7.8-8.2,25.1-17,40.4-24.9c8.6-4.4,17.5-9,20.1-11.3c0.6-0.5,0.6-0.8,0.6-0.8
		C449.7,428.3,439.6,423,435.8,421z"/>
</g>
<path class="st1" d="M461.1,411.1c-15-6.1-21.4-14.3-20.8-26.5c0.6-14.2-7.4-24.6-11.3-28.7c2.3-8.8,9.1-39.4,0-66
	c-9.7-28.4-39.5-71.8-70.2-114.5c-12.6-17.5-13.2-36.6-13.8-58.6c-0.7-21-1.4-44.9-13.1-71.4C319.1,16.5,293.5,0,261.6,0
	c-19,0-38.4,5.9-53.4,16.3c-30.7,21.2-26.6,67.3-23.9,97.9c0.4,4.2,0.7,8.1,0.9,11.5c1.8,29.9,0.2,45.7-2,50.5
	c-1.4,3.1-8.1,12-15.3,21.5c-7.4,9.8-15.8,20.8-22.7,31.1c-8.2,12.4-14.8,31.4-21.3,49.7c-4.7,13.4-9.1,26.1-13.4,33.7
	c-8.2,14.6-6.1,28.1-4.4,34.4c-3.1,2.1-7.6,6.4-11.3,14.4c-4.6,9.7-13.8,15-33.1,18.7c-8.8,1.8-14.9,5.5-18.1,11.1
	c-4.6,8-2.1,18.1,0.2,25.1c3.4,10.2,1.3,16.6-2.6,28.2c-0.9,2.7-1.9,5.7-2.9,9.1c-1.6,5.3-1,10.1,1.7,14.3
	c7.3,11.1,28.5,15,50.3,17.6c13,1.5,27.3,6.8,41.1,11.8c13.5,4.9,27.5,10.1,40.2,11.6c1.9,0.2,3.8,0.4,5.7,0.4
	c19.2,0,27.9-12.7,30.6-18c6.9-1.4,30.7-5.9,55.2-6.5c24.5-0.7,48.1,4.1,54.9,5.6c2.1,4,7.7,13.3,16.5,18c4.9,2.7,11.6,4.2,18.6,4.2
	c0,0,0,0,0,0c7.4,0,21.5-1.8,32.7-13.5c11.1-11.8,38.9-26.9,59.3-37.9c4.5-2.5,8.8-4.8,12.5-6.8c11.4-6.3,17.6-15.4,17.1-24.8
	C474.1,421.2,469,414.3,461.1,411.1z M276.3,74c11.1,0,20.1,11.5,20.1,25.5c0,5.9-1.6,11.4-4.4,15.9c0.7-2.4,1.1-4.9,1.1-7.6
	c0-11.8-7.5-21-17-21c-9.3,0-16.9,9.4-16.9,21c0,0.8,0,1.6,0.1,2.4c-0.5-0.2-1-0.4-1.4-0.6c-1.1-3.3-1.6-6.6-1.6-10.1
	C256.3,85.5,265.3,74,276.3,74z M242.3,125.2c4.2,0.7,14.6,4.9,22.2,7.9c3.5,1.4,6.5,2.6,8.7,3.4c6.7,2.3,10.2,5.3,10.6,6.4
	c-0.2,0.7-0.5,1-4.2,3c-1.9,1-4.3,2.2-7.2,4l-2,1.2c-7.9,4.8-26.5,16-31.5,16.7c-3.4,0.5-5.5-0.9-10.3-4.1c-1.1-0.7-2.2-1.5-3.4-2.3
	c-8.6-5.6-14.1-11.8-14.7-14.2c2.8-2.2,9.7-7.6,13.3-10.8c7.2-6.7,14.4-11.2,18-11.2C242,125.1,242.1,125.1,242.3,125.2z
	 M214.1,78.7c8.1,0,15,11,15,24c0,1.6-0.1,3.3-0.4,5c-0.5,0.2-1,0.4-1.5,0.7c0-1.1-0.2-2.2-0.3-3.3c-1.7-10-8.4-17.3-15.8-17.3
	c-0.5,0-1.1,0-1.7,0.1c-4.4,0.7-7.9,4-9.8,8.8C201.3,86.4,207.1,78.7,214.1,78.7z M189.3,469.1c-1.8,8.2-11.1,14.9-13.3,16.4
	c-0.8,0.2-1.8,0.3-3,0.3c-12.8,0-38-10.6-51.6-16.3l-2-0.8c-7.6-3.2-20-5.2-31.9-7.1c-9.5-1.5-22.6-3.7-24.7-5.6
	c-1.8-2,0.3-8.4,2.1-14c1.3-4.1,2.6-8.2,3.4-12.6c1-7-0.2-12.7-1.2-17.3c-0.8-3.9-1.5-6.9-0.8-9.9c0.5-2.2,11.4-4.6,16-5.6
	c6.5-1.4,13.3-2.9,17.7-5.6c6-3.6,9.2-10.3,12-16.1c2.1-4.2,4.2-8.6,6.7-10.1c0.1-0.1,0.4-0.2,0.8-0.2c4.7,0,14.7,10,20.4,18.9
	c1.5,2.2,4.2,6.8,7.3,12c9.3,15.6,22.1,37,28.8,44.2C181.9,446.1,191.7,458.5,189.3,469.1z M327.8,360c-2.1,10.2-2.4,43-2.4,50.4
	c-4.4,5.6-26.5,31.7-58.3,36.4c-12.9,1.9-25,2.8-35.9,2.8c-9.3,0-15.2-0.7-17.7-1.1l-16-18.3c6.3-3.1,12.6-9.7,10.9-21.5
	c-1.4-10-14.3-19.9-29.2-31.4c-12.2-9.4-26-20-29.8-29.1c-7.9-18.6-1.7-51.3,9.1-68.2c5.3-8.4,9.7-21.2,13.9-33.6
	c4.6-13.4,9.3-27.2,14.5-33.2c8.3-9.4,16.1-27.8,17.4-42.3c7.8,7.5,19.9,16.9,31.1,16.9c1.7,0,3.4-0.2,5-0.7
	c7.7-2.2,18.9-8.7,29.8-15c9.4-5.4,21-12.1,25.3-12.7c7.5,10.7,50.9,106.9,55.4,137.7c3.5,24.4-0.2,44.6-2.1,52.5
	c-1.5-0.2-3.3-0.4-5.2-0.4C331.8,349.5,328.6,356.1,327.8,360z M449.2,431.6c-2.5,2.3-11.4,6.9-20.1,11.3
	c-15.3,7.8-32.6,16.7-40.4,24.9c-11,11.5-23.4,19.3-30.8,19.3c-0.9,0-1.7-0.1-2.5-0.3c-8.1-2.5-14.8-14.3-11.2-31
	c3.8-17.1,8.2-40.3,7.4-54c-0.2-3.1-0.4-6.5-0.7-9.8c-0.5-6.1-1.2-15.2-0.5-17.9c0.2-0.1,0.3-0.1,0.5-0.2c0,7.8,1.7,23.5,14.2,28.9
	c3.7,1.6,8,2.4,12.7,2.4c12.5,0,26.4-6.1,32.1-11.8c3.4-3.3,6.2-7.5,8.1-10.7c0.4,1.3,0.7,2.9,0.6,5c-0.7,11.6,4.9,26.9,15.6,32.5
	l1.6,0.8c3.8,2,13.9,7.3,14.1,9.8C449.8,430.8,449.8,431.1,449.2,431.6z"/>
</svg>
