<?xml version="1.0" encoding="utf-8"?>
<!-- Generator: Adobe Illustrator 24.0.1, SVG Export Plug-In . SVG Version: 6.00 Build 0)  -->
<svg version="1.1" id="Capa_1" xmlns="http://www.w3.org/2000/svg" xmlns:xlink="http://www.w3.org/1999/xlink" x="0px" y="0px"
	 viewBox="0 0 425.6 425.6" style="enable-background:new 0 0 425.6 425.6;" xml:space="preserve">
<style type="text/css">
	.st0{fill:#FCE14B;}
	.st1{fill:#FFFFFF;}
</style>
<g>
	<g>
		<g>
			<path class="st0" d="M77.7,108.3L47.1,78C21.3,109.5,4.3,148.6,0,191.5h43.1C46.9,160.3,59.3,131.9,77.7,108.3z"/>
			<polygon class="st0" points="169.6,308.8 234.7,259.9 297.6,212.8 234.7,165.7 169.6,116.8 			"/>
			<path class="st1" d="M190.9,43.6V0.5C148.1,4.8,109,21.9,77.4,47.7l30.3,30.5C131.4,59.8,159.8,47.5,190.9,43.6z"/>
			<path class="st1" d="M234.7,0.5v43.1c83.6,11.1,148.3,82.8,148.3,169.2S318.3,370.9,234.7,382v43.1
				C342,413.8,425.6,322.9,425.6,212.8S342,11.8,234.7,0.5z"/>
			<path class="st0" d="M43.1,234.1H0c4.3,42.9,21.3,81.9,47.1,113.5l30.5-30.5C59.3,293.7,46.9,265.3,43.1,234.1z"/>
			<path class="st1" d="M77.4,377.9c31.6,25.8,70.8,42.9,113.5,47.1V382c-31.1-3.8-59.5-16.2-83.2-34.6L77.4,377.9z"/>
		</g>
	</g>
</g>
</svg>
