<?xml version="1.0" encoding="utf-8"?>
<!-- Generator: Adobe Illustrator 24.0.1, SVG Export Plug-In . SVG Version: 6.00 Build 0)  -->
<svg version="1.1" id="Layer_1" xmlns="http://www.w3.org/2000/svg" xmlns:xlink="http://www.w3.org/1999/xlink" x="0px" y="0px"
	 viewBox="0 0 503.6 503.6" style="enable-background:new 0 0 503.6 503.6;" xml:space="preserve">
<style type="text/css">
	.st0{display:none;}
	.st1{fill:#FFFFFF;}
	.st2{fill:none;stroke:#FCE14B;stroke-width:60;stroke-linecap:round;stroke-miterlimit:10;}
</style>
<rect y="0.1" class="st0" width="503.4" height="503.4"/>
<g>
	<g>
		<path class="st1" d="M365.5,424.9H141.2v-27.5l-27.5,27.5v26.2c0,28.9,24.1,52.4,53,52.4l170.4-0.2c28.9,0,52.6-23.5,52.6-52.4
			l0.2-302.2l-24.4,24.4V424.9z M250.8,488c-13,0-23.5-10.6-23.5-23.5c0-13,10.6-23.5,23.5-23.5c12.9,0,23.5,10.6,23.5,23.5
			C274.3,477.4,263.8,488,250.8,488z"/>
		<path class="st1" d="M337.3,0.1H167.2c-28.9,0-53.5,23.6-53.5,52.5V306l27.5-27.5V74.8h203.7l41.9-41.9
			C379.4,13.3,360.1,0.1,337.3,0.1z M209.2,45.1c-1.5,1.5-3.5,2.3-5.5,2.3c-2.1,0-4.1-0.9-5.6-2.3c-1.5-1.5-2.3-3.5-2.3-5.5
			c0-2.1,0.8-4.1,2.3-5.6c2.9-2.9,8.2-3,11.1,0c1.5,1.5,2.3,3.5,2.3,5.6C211.5,41.6,210.6,43.7,209.2,45.1z M277,47.2h-49.4
			c-4.3,0-7.9-3.5-7.9-7.9c0-4.4,3.5-7.9,7.9-7.9H277c4.3,0,7.9,3.5,7.9,7.9C284.9,43.7,281.4,47.2,277,47.2z"/>
	</g>
</g>
<line class="st2" x1="38" y1="440.9" x2="440.6" y2="38.3"/>
</svg>
