<?xml version="1.0" encoding="utf-8"?>
<!-- Generator: Adobe Illustrator 24.0.1, SVG Export Plug-In . SVG Version: 6.00 Build 0)  -->
<svg version="1.1" id="Calque_1" xmlns="http://www.w3.org/2000/svg" xmlns:xlink="http://www.w3.org/1999/xlink" x="0px" y="0px"
	 viewBox="0 0 2500 2438" style="enable-background:new 0 0 2500 2438;" xml:space="preserve">
<style type="text/css">
	.st0{fill:#FCE14B;}
	.st1{fill:#FFFFFF;}
</style>
<path class="st0" d="M0,0.2v2437.5h2500V0.2H0z M2395.8,2333.6H104.2V104.4h2291.7V2333.6z"/>
<path class="st1" d="M1685.4,1000.2c-82.3,0-110.4,41.7-110.4,76c0,37.5,18.7,63.5,129.2,120.8c163.5,79.2,214.6,155.2,214.6,266.7
	c0,166.7-127.1,256.2-299,256.2c-90.6,0-168.8-18.8-213.5-44.8c-7.3-3.1-8.3-8.3-8.3-16.7v-153.1c0-10.4,5.2-13.5,12.5-8.3
	c65.6,42.7,140.6,61.5,209.4,61.5c82.3,0,116.7-34.4,116.7-81.3c0-37.5-24-70.8-129.2-125c-147.9-70.8-209.4-142.7-209.4-262.5
	c0-134.4,105.2-245.8,287.5-245.8c89.6,0,152.1,13.5,186.5,29.2c8.3,5.2,10.4,13.5,10.4,20.8v142.7c0,8.3-5.2,13.5-15.6,10.4
	C1820.8,1018,1753.1,1000.2,1685.4,1000.2L1685.4,1000.2z"/>
<path class="st1" d="M895.8,553.4c-103.1,0-202.1,2.1-268.8,5.2c-8.3,0-22.9,5.2-22.9,12.5h0v1118.8c0,9.4,4.2,12.5,12.5,12.5H776
	c9.4,0,12.5-4.2,12.5-12.5v-400c28.1,0,41.7,2.1,81.3,2.1c235.4,0,427.1-113.5,427.1-378.1C1296.9,711.7,1184.4,553.4,895.8,553.4z
	 M874,1126.3c-41.7,0-60.4,0-84.4-2.1V722.1c18.8-1,58.3-3.1,100-3.1c138.5,0,220.8,66.7,220.8,199
	C1110.4,1083.6,995.8,1126.3,874,1126.3z"/>
</svg>
