<?xml version="1.0" encoding="utf-8"?>
<!-- Generator: Adobe Illustrator 24.0.1, SVG Export Plug-In . SVG Version: 6.00 Build 0)  -->
<svg version="1.1" id="Calque_1" xmlns="http://www.w3.org/2000/svg" xmlns:xlink="http://www.w3.org/1999/xlink" x="0px" y="0px"
	 viewBox="0 0 2500 2500" style="enable-background:new 0 0 2500 2500;" xml:space="preserve">
<style type="text/css">
	.st0{fill-rule:evenodd;clip-rule:evenodd;fill:#FCE14B;}
	.st1{fill-rule:evenodd;clip-rule:evenodd;fill:#323739;}
</style>
<g>
	<ellipse class="st0" cx="1250" cy="1246.2" rx="1250" ry="650.7"/>
	<path class="st1" d="M351,1631.5L488,938h316.8c137,8.6,205.5,77.1,205.5,196.9c0,205.5-162.7,325.3-308.2,316.8H547.9l-34.2,179.8
		H351z M582.2,1323.2l42.8-256.9h111.3c59.9,0,102.7,25.7,102.7,77.1c-8.6,145.6-77.1,171.2-154.1,179.8H582.2L582.2,1323.2z
		 M978.4,1451.7l137-693.5h162.7L1243.8,938h154.1c137,8.6,188.4,77.1,171.2,162.7l-59.9,351H1338l59.9-316.8
		c8.6-42.8,8.6-68.5-51.4-68.5h-128.4l-77.1,385.3H978.4z M1498.3,1631.5l137-693.5h316.8c137,8.6,205.5,77.1,205.5,196.9
		c0,205.5-162.7,325.3-308.2,316.8h-154.1l-34.2,179.8H1498.3z M1729.4,1323.2l42.8-256.9h111.3c59.9,0,102.7,25.7,102.7,77.1
		c-8.6,145.6-77.1,171.2-154.1,179.8H1729.4L1729.4,1323.2z"/>
</g>
</svg>
