<?xml version="1.0" encoding="utf-8"?>
<!-- Generator: Adobe Illustrator 24.0.1, SVG Export Plug-In . SVG Version: 6.00 Build 0)  -->
<svg version="1.1" id="Calque_1" xmlns="http://www.w3.org/2000/svg" xmlns:xlink="http://www.w3.org/1999/xlink" x="0px" y="0px"
	 viewBox="0 0 2500 2438" style="enable-background:new 0 0 2500 2438;" xml:space="preserve">
<style type="text/css">
	.st0{fill:#FCE14B;}
	.st1{fill:#FFFFFF;}
</style>
<path class="st0" d="M0,0.2v2437.5h2500V0.2H0z M2395.8,2333.6H104.2V104.4h2291.7V2333.6z"/>
<path class="st1" d="M1500,1029.4c0-12.5,0-42.7-5.2-101c0-8.3,1-10.4,8.3-13.5c63.5-26,212.5-71.9,381.2-71.9
	c8.3,0,12.5,2.1,12.5,10.4v151c0,8.3-3.1,10.4-11.5,10.4c-65.6-3.1-160.4,5.2-196.9,20.8v656.3c0,8.3-3.1,12.5-12.5,12.5h-163.5
	c-8.3,0-12.5-3.1-12.5-12.5L1500,1029.4L1500,1029.4z"/>
<path class="st1" d="M927.1,553.4c-103.1,0-201,2.1-267.7,5.2c-8.3,0-10.4,5.2-10.4,12.5l0,0h-1v1119.8c0,9.4,4.2,12.5,12.5,12.5
	h160.4c9.4,0,12.5-4.2,12.5-12.5v-400c28.1,0,41.7,2.1,81.3,2.1c235.4,0,427.1-113.5,427.1-378.1
	C1341.7,711.7,1215.6,553.4,927.1,553.4z M917.7,1126.3c-41.7,0-60.4,0-84.4-2.1h0V722.1c18.8-1,58.3-3.1,100-3.1
	c139.6,0,220.8,66.7,220.8,199C1154.2,1083.6,1039.6,1126.3,917.7,1126.3z"/>
</svg>
