<?xml version="1.0" encoding="utf-8"?>
<!-- Generator: Adobe Illustrator 24.0.1, SVG Export Plug-In . SVG Version: 6.00 Build 0)  -->
<svg version="1.1" id="Layer_5" xmlns="http://www.w3.org/2000/svg" xmlns:xlink="http://www.w3.org/1999/xlink" x="0px" y="0px"
	 viewBox="0 0 512 512" style="enable-background:new 0 0 512 512;" xml:space="preserve">
<style type="text/css">
	.st0{fill:#FFFFFF;}
	.st1{fill:#FCE14B;}
</style>
<circle class="st0" cx="208" cy="256" r="8"/>
<path class="st1" d="M208,160c-52.9,0-96,43.1-96,96s43.1,96,96,96s96-43.1,96-96S260.9,160,208,160z M133.7,226.2l14.9,5.9
	c-1.8,4.4-3,9-3.8,13.7l-15.8-2.5C129.9,237.5,131.5,231.8,133.7,226.2L133.7,226.2z M128.2,261l16-1c0.3,4.7,1.1,9.4,2.4,14
	l-15.4,4.5C129.6,272.8,128.5,267,128.2,261L128.2,261z M148.4,309.3c-3.9-4.4-7.4-9.3-10.3-14.4l14-7.8c2.3,4.1,5.1,8,8.2,11.6
	L148.4,309.3z M242.3,301.7l-24.1-24.1c-3.1,1.5-6.6,2.4-10.3,2.4c-13.2,0-24-10.8-24-24c0-10.4,6.7-19.2,16-22.5V176h16v57.5
	c9.3,3.3,16,12.1,16,22.5c0,3.7-0.9,7.2-2.4,10.3l24.1,24.1L242.3,301.7z"/>
<path class="st0" d="M483.2,384L424,336.6V368H208c-61.8,0-112-50.2-112-112s50.2-112,112-112s112,50.2,112,112
	c0,40.8-22,76.4-54.6,96h49.8c16.9-18.9,28.6-41.8,33.8-66.6l1-4.9l26-6.7v-35.6l-26-6.6l-1-4.9c-3.6-17.7-10.6-34.4-20.7-49.7
	l-2.8-4.2l13.8-23.1l-25.1-25.1l-23.1,13.8l-4.2-2.8c-15.3-10.1-32-17-49.7-20.7l-4.9-1l-6.6-26h-35.5l-6.6,26l-4.9,1
	c-17.7,3.6-34.4,10.6-49.7,20.7l-4.2,2.8l-23.1-13.8l-25.1,25.1l13.8,23.1l-2.8,4.2c-10.1,15.3-17,32-20.7,49.7l-1,4.9l-26,6.6v35.6
	l26,6.6l1,4.9C80.7,351.8,140,400,208,400h216v31.4L483.2,384z"/>
<path class="st0" d="M24,368v32h114.8c-16.6-8-31.7-18.9-44.7-32H24z"/>
</svg>
