<?xml version="1.0" encoding="utf-8"?>
<!-- Generator: Adobe Illustrator 24.0.1, SVG Export Plug-In . SVG Version: 6.00 Build 0)  -->
<svg version="1.1" id="Calque_1" xmlns="http://www.w3.org/2000/svg" xmlns:xlink="http://www.w3.org/1999/xlink" x="0px" y="0px"
	 viewBox="0 0 2500 2500" style="enable-background:new 0 0 2500 2500;" xml:space="preserve">
<style type="text/css">
	.st0{fill:#FFFFFF;}
	.st1{fill:#FCE14B;}
</style>
<path class="st0" d="M2467.5,1222.7c-5.8-407.6-234.3-803.5-584.3-1012.8C1605.3,38.4,1257-8.7,941.9,72.1
	c-475,118-851.8,548.2-900,1036C-18,1569.8,215.1,2050.6,614.6,2289c391.9,245.3,922.7,235.4,1306.4-22.7
	C2265.8,2042.5,2480.3,1634.3,2467.5,1222.7z M1318,2286.6c-553.5,55.2-1088.4-414-1104.1-969.8
	C172.7,866.9,469.2,420.4,893.6,271.5C1489,33.1,2219.2,473.3,2280.8,1111.6C2376.7,1686,1900,2269.7,1318,2286.6z"/>
<path class="st1" d="M953.5,1188.4c266.9-218,527.9-443.6,800.6-655.2C1611.1,753,1464,969.8,1321,1189.6
	C1198.3,1190.1,1075.6,1190.1,953.5,1188.4L953.5,1188.4z M1179.1,1309.9c123.3,0,245.9,0,368.6,1.7
	c-268.6,216.9-528.5,444.2-801.7,655.2C889,1747.1,1036,1529.7,1179.1,1309.9L1179.1,1309.9z"/>
</svg>
