<?xml version="1.0" encoding="utf-8"?>
<!-- Generator: Adobe Illustrator 24.0.1, SVG Export Plug-In . SVG Version: 6.00 Build 0)  -->
<svg version="1.1" id="Calque_1" xmlns="http://www.w3.org/2000/svg" xmlns:xlink="http://www.w3.org/1999/xlink" x="0px" y="0px"
	 viewBox="0 0 2500 2500" style="enable-background:new 0 0 2500 2500;" xml:space="preserve">
<style type="text/css">
	.st0{fill:#FFFFFF;}
	.st1{fill:#FCE14B;}
</style>
<path class="st0" d="M1250,0l1104.8,625v1250L1250,2500L145.2,1875V625L1250,0z"/>
<path class="st0" d="M2157.5,1831.9l-871,492.7v-383.8l542.7-298.5L2157.5,1831.9z M2217.1,1777.9V747.5l-318.8,184v662.3
	L2217.1,1777.9L2217.1,1777.9z M339,1831.9l871,492.7v-383.8l-542.7-298.5L339,1831.9L339,1831.9z M279.4,1777.9V747.5l318.8,184
	v662.3L279.4,1777.9L279.4,1777.9z M316.7,680.8L1210,175.4v371L637.7,861.2l-4.4,2.5L316.7,680.8z M2179.8,680.8l-893.3-505.4v371
	l572.3,314.8l4.4,2.5L2179.8,680.8z"/>
<path class="st1" d="M1210,1853.5l-535.4-294.4V975.8L1210,1285V1853.5 M1286.5,1853.5l535.4-294.4V975.8L1286.5,1285V1853.5
	 M710.8,908.3l537.5-295.6l537.5,295.6l-537.5,310.4L710.8,908.3"/>
</svg>
