<svg id="Calque_1" data-name="Calque 1" xmlns="http://www.w3.org/2000/svg" xmlns:xlink="http://www.w3.org/1999/xlink" viewBox="0 0 453.54 255.12"><defs><style>.cls-1,.cls-11,.cls-5,.cls-9{fill:none;}.cls-2{fill:#fff;}.cls-3{clip-path:url(#clip-path);}.cls-4{fill:#575756;}.cls-5{stroke:#fff;stroke-width:0.94px;}.cls-11,.cls-5,.cls-9{stroke-miterlimit:10;}.cls-6{fill:#45b2a4;}.cls-7{clip-path:url(#clip-path-3);}.cls-8{fill:#36a9e1;}.cls-9{stroke:#575756;stroke-linecap:round;stroke-width:2.47px;}.cls-10{fill:#1d1d1b;}.cls-11{stroke:#1d1d1b;}</style><clipPath id="clip-path"><rect class="cls-1" x="-73.31" y="-28.57" width="397.71" height="281.21"/></clipPath><clipPath id="clip-path-3"><rect class="cls-1" x="177.87" y="11.55" width="328.13" height="232.01"/></clipPath></defs><title>logos</title><rect class="cls-2" width="453.54" height="255.12"/><g class="cls-3"><g class="cls-3"><path class="cls-4" d="M107.9,78.08c14.81,0,25.31,11,25.31,25s-10.5,25-25.31,25-25.32-11-25.32-25,10.43-25,25.32-25m0,40.85c9.28,0,15.24-7,15.24-15.82s-6-15.82-15.24-15.82-15.25,7-15.25,15.82,5.87,15.82,15.25,15.82"/><path class="cls-5" d="M107.9,78.08c14.81,0,25.31,11,25.31,25s-10.5,25-25.31,25-25.32-11-25.32-25S93,78.08,107.9,78.08Zm0,40.85c9.28,0,15.24-7,15.24-15.82s-6-15.82-15.24-15.82-15.25,7-15.25,15.82S98.52,118.93,107.9,118.93Z"/><polygon class="cls-6" points="151.44 80.24 180.72 80.24 179.03 89.83 160.59 89.83 159.19 97.8 176.23 97.8 174.56 107.24 157.52 107.24 156.12 115.2 175.37 115.2 173.74 124.5 143.64 124.5 151.44 80.24"/><polygon class="cls-5" points="151.44 80.24 180.72 80.24 179.03 89.83 160.59 89.83 159.19 97.8 176.23 97.8 174.56 107.24 157.52 107.24 156.12 115.2 175.37 115.2 173.74 124.5 143.64 124.5 151.44 80.24"/><path class="cls-6" d="M67.33,80.24H85.84c9.52,0,14.7,5.75,13.23,14.09-1.36,7.74-6,12.1-12.89,13.72L92.4,124.5H78.83L73.29,108,70.37,124.5H59.53ZM83.5,99.42c2.43,0,4.5-2.51,5-5.09S87.39,89.46,85,89.46H76.55l-1.76,10Z"/><path class="cls-5" d="M67.33,80.24H85.84c9.52,0,14.7,5.75,13.23,14.09-1.36,7.74-6,12.1-12.89,13.72L92.4,124.5H78.83L73.29,108,70.37,124.5H59.53ZM83.5,99.42c2.43,0,4.5-2.51,5-5.09S87.39,89.46,85,89.46H76.55l-1.76,10Z"/><path class="cls-6" d="M126.31,80.24h11.08l-5,27.74c-1.06,5.9,1.45,8,5.32,8,4.25,0,7.28-2.06,8.34-8l5-27.74H162.2l-5.28,29.36c-1.88,10.47-11,16.38-21,16.38-10.39,0-16.71-6.2-14.88-16.38Z"/><path class="cls-5" d="M126.31,80.24h11.08l-5,27.74c-1.06,5.9,1.45,8,5.32,8,4.25,0,7.28-2.06,8.34-8l5-27.74H162.2l-5.28,29.36c-1.88,10.47-11,16.38-21,16.38-10.39,0-16.71-6.2-14.88-16.38Z"/><path class="cls-4" d="M68.9,138.8a.27.27,0,0,1,.29-.28.26.26,0,0,1,.28.28V158H78a.26.26,0,1,1,0,.51H69.19a.27.27,0,0,1-.29-.28Z"/><path class="cls-4" d="M92.15,141a.56.56,0,0,1,.56-.56.57.57,0,0,1,.57.56.58.58,0,0,1-.57.57.57.57,0,0,1-.56-.57m.28,3.21a.27.27,0,0,1,.28-.29.28.28,0,0,1,.29.29v14.17a.27.27,0,0,1-.29.28.26.26,0,0,1-.28-.28Z"/><path class="cls-4" d="M109.15,154.13v4.23a.26.26,0,0,1-.28.28.27.27,0,0,1-.29-.28V138.8a.27.27,0,0,1,.29-.28.26.26,0,0,1,.28.28v9.61a7.26,7.26,0,0,1,6.8-4.65,7.51,7.51,0,0,1,0,15,7.26,7.26,0,0,1-6.8-4.65m13.61-2.86a6.81,6.81,0,1,0-13.61-.28v.28a6.81,6.81,0,1,0,13.61,0"/><path class="cls-4" d="M138.2,148.83c0-2.89,1.62-5.07,4.79-5.07a.25.25,0,0,1,.26.26.27.27,0,0,1-.26.25c-2.55,0-4.22,1.67-4.22,4.56v9.53a.26.26,0,0,1-.28.28.27.27,0,0,1-.29-.28Z"/><path class="cls-4" d="M156.06,151.27a7.41,7.41,0,0,1,7.37-7.51,7.24,7.24,0,0,1,5,1.93.33.33,0,0,1,.11.25c0,.09,0,.15-.17.32l-6.46,7.68a.32.32,0,0,1-.23.11.25.25,0,0,1-.25-.26.31.31,0,0,1,.08-.19l6.44-7.63a6.68,6.68,0,0,0-4.48-1.7,7,7,0,0,0,0,14,6.65,6.65,0,0,0,5.3-2.58.35.35,0,0,1,.23-.11.26.26,0,0,1,.28.25.47.47,0,0,1-.11.26,7.38,7.38,0,0,1-13.07-4.82"/><polygon class="cls-4" points="65.35 180.28 68.81 177.12 69.49 177.49 65.17 181.26 64.62 180.96 65.44 175.29 66.12 175.66 65.35 180.28"/><path class="cls-4" d="M73.58,182.64a3.42,3.42,0,0,1-.83,1.13,2,2,0,0,1-1.07.49,2,2,0,0,1-1.16-.21,2.12,2.12,0,0,1-.88-.76,2.06,2.06,0,0,1-.31-1.13,3.2,3.2,0,0,1,.32-1.33l.17-.35a3.25,3.25,0,0,1,.83-1.12A2.05,2.05,0,0,1,74.07,181a3.12,3.12,0,0,1-.35,1.36Zm-.49-.62a2.39,2.39,0,0,0,.28-1.49,1.36,1.36,0,0,0-1.92-.91,2.4,2.4,0,0,0-1,1.11l-.17.36a2.46,2.46,0,0,0-.27,1.48,1.35,1.35,0,0,0,1.91.94,2.37,2.37,0,0,0,1-1.13Z"/><polygon class="cls-4" points="79.91 182.81 78.31 182.16 76.5 186.6 75.84 186.33 77.66 181.89 76.07 181.24 76.28 180.7 80.13 182.28 79.91 182.81"/><path class="cls-4" d="M82.71,186.61l-1.19-.41-.71,2.05-.68-.24,1.77-5.07,1.68.59a2.1,2.1,0,0,1,1.19.85,1.51,1.51,0,0,1,.06,1.29,1.42,1.42,0,0,1-.54.74,1.6,1.6,0,0,1-.9.28l.44,2.57v0l-.72-.25Zm-1-1,1,.36a1.27,1.27,0,0,0,.88,0,.93.93,0,0,0,.54-.59,1,1,0,0,0,0-.82,1.22,1.22,0,0,0-.72-.54l-1-.36Z"/><polygon class="cls-4" points="89.48 188.4 87.24 187.75 86.71 189.58 89.3 190.34 89.14 190.89 85.86 189.94 87.37 184.78 90.61 185.73 90.45 186.28 87.89 185.53 87.4 187.19 89.64 187.85 89.48 188.4"/><polygon class="cls-4" points="95.23 191.78 97.72 192.3 97.6 192.87 94.41 192.2 95.52 186.94 96.21 187.08 95.23 191.78"/><rect class="cls-4" x="97.88" y="190.31" width="5.37" height="0.71" transform="translate(-104.23 257.91) rotate(-80.37)"/><polygon class="cls-4" points="104.96 193.08 107.05 188.88 107.81 188.97 105.16 194.05 104.54 193.97 103.24 188.39 104.01 188.49 104.96 193.08"/><path class="cls-4" d="M111.36,192.47l-1.26-.09-.16,2.17-.71-.05.39-5.36,1.78.13a2.06,2.06,0,0,1,1.36.51,1.66,1.66,0,0,1,.07,2.09,1.69,1.69,0,0,1-.8.5l1.09,2.37v0l-.76-.05Zm-1.22-.67,1.09.08a1.21,1.21,0,0,0,.86-.21.92.92,0,0,0,.36-.71,1,1,0,0,0-.24-.78,1.27,1.27,0,0,0-.84-.33l-1.08-.08Z"/><path class="cls-4" d="M118.26,193.52l-2.25,0-.53,1.4-.73,0,2.15-5.33h.62l2,5.41h-.72Zm-2-.62,1.82,0-.86-2.53Z"/><rect class="cls-4" x="121.52" y="189.53" width="0.71" height="5.37" transform="translate(-4.07 2.64) rotate(-1.22)"/><path class="cls-4" d="M126.37,192.32a3.29,3.29,0,0,1-1.36-.56,1.24,1.24,0,0,1-.48-.92,1.29,1.29,0,0,1,.44-1.07,2,2,0,0,1,1.3-.5,2.27,2.27,0,0,1,1,.15,1.64,1.64,0,0,1,.71.55,1.48,1.48,0,0,1,.29.81l-.71,0a1,1,0,0,0-.36-.75,1.24,1.24,0,0,0-.89-.22,1.26,1.26,0,0,0-.8.28.75.75,0,0,0-.25.66.67.67,0,0,0,.31.54,2.76,2.76,0,0,0,1,.35,4.61,4.61,0,0,1,1.07.35,1.67,1.67,0,0,1,.6.5,1.29,1.29,0,0,1,.22.7,1.24,1.24,0,0,1-.44,1.07,2.22,2.22,0,0,1-1.34.48,2.6,2.6,0,0,1-1-.15,1.78,1.78,0,0,1-.78-.53,1.5,1.5,0,0,1-.31-.82l.71-.05a.94.94,0,0,0,.41.75,1.57,1.57,0,0,0,1,.22,1.4,1.4,0,0,0,.84-.28.74.74,0,0,0,.26-.64.71.71,0,0,0-.31-.59,3.08,3.08,0,0,0-1-.37"/><path class="cls-4" d="M134.61,191.41a3.36,3.36,0,0,1-.1,1.4,2,2,0,0,1-.65,1,2.05,2.05,0,0,1-1.09.44,2,2,0,0,1-2-1,3.28,3.28,0,0,1-.44-1.3l0-.39a3.33,3.33,0,0,1,.11-1.39,2.08,2.08,0,0,1,.65-1,2,2,0,0,1,1.08-.44,2.16,2.16,0,0,1,1.17.17,2,2,0,0,1,.86.82,3.31,3.31,0,0,1,.42,1.33Zm-.74-.26a2.36,2.36,0,0,0-.55-1.41,1.28,1.28,0,0,0-1.13-.39,1.26,1.26,0,0,0-1,.63,2.44,2.44,0,0,0-.23,1.46l.05.39a2.46,2.46,0,0,0,.55,1.4,1.37,1.37,0,0,0,2.13-.22,2.44,2.44,0,0,0,.22-1.47Z"/><polygon class="cls-4" points="141.41 192.83 140.71 192.95 137.32 189.35 138.04 193.42 137.34 193.55 136.41 188.26 137.11 188.13 140.5 191.76 139.78 187.66 140.48 187.54 141.41 192.83"/><path class="cls-4" d="M147.8,185.45l-.56.15-1.2-.8.79-.22Zm1.81,4-2.17.58-.13,1.49-.71.19.6-5.73.6-.16,3.37,4.67-.7.19Zm-2.12,0,1.77-.47-1.53-2.19Z"/><polygon class="cls-4" points="157.57 187.4 157.52 182.71 158.25 182.44 158.19 188.17 157.6 188.39 153.91 184 154.64 183.74 157.57 187.4"/><path class="cls-4" d="M163.86,183.26l-2.15.9.74,1.75,2.5-1,.22.53L162,186.72l-2.07-5,3.11-1.3.22.54-2.46,1,.67,1.59,2.15-.9Zm-2.64-3.63.76-.32-.5,1.38-.5.21Z"/><polygon class="cls-4" points="167.62 183.64 169.91 182.55 170.16 183.07 167.22 184.47 164.91 179.62 165.55 179.32 167.62 183.64"/><path class="cls-4" d="M174.34,178a3.35,3.35,0,0,1,.42,1.34,2,2,0,0,1-.23,1.15,2,2,0,0,1-.85.81,2.06,2.06,0,0,1-1.14.27,2.14,2.14,0,0,1-1.1-.42,3.3,3.3,0,0,1-.88-1l-.18-.34a3.37,3.37,0,0,1-.42-1.33,2,2,0,0,1,1.08-2,2.21,2.21,0,0,1,1.15-.27,2.06,2.06,0,0,1,1.1.44,3.29,3.29,0,0,1,.89,1.09Zm-.78,0a2.38,2.38,0,0,0-1-1.1,1.26,1.26,0,0,0-1.19.06,1.24,1.24,0,0,0-.68.95,2.34,2.34,0,0,0,.32,1.44l.19.34a2.38,2.38,0,0,0,1,1.1,1.26,1.26,0,0,0,1.19,0,1.27,1.27,0,0,0,.7-.95,2.44,2.44,0,0,0-.34-1.45Z"/><path class="cls-4" d="M117.84,62.39a7.75,7.75,0,0,1-3.31.78,5.77,5.77,0,0,1-3.15-.87,3.67,3.67,0,0,1-1.77-3.72A6.24,6.24,0,0,1,113,54a6.82,6.82,0,0,1,3-.75,2.55,2.55,0,0,1,2.29,1,2,2,0,0,1,.3,1c0,1.35-1.35,2.91-3.58,4a12.13,12.13,0,0,1-2.79,1,2.23,2.23,0,0,0,1.35,1.83,3.28,3.28,0,0,0,1.38.3,6.61,6.61,0,0,0,5.17-3.3.28.28,0,0,1,.48-.06.58.58,0,0,1,0,.66,5.76,5.76,0,0,1-2.79,2.73m-5.44-4.77a6.88,6.88,0,0,0-.24,1.77,5.47,5.47,0,0,0,2.73-1.11,4.56,4.56,0,0,0,1.53-3.06,1,1,0,0,0-.51-1c-1.11-.51-2.88.6-3.51,3.4"/><path class="cls-4" d="M131,61.94c-.6.57-1.65,1.41-2.73,1.14A2.56,2.56,0,0,1,126.42,60c.28-1.47,1-4.05,1.06-4.44s.27-1.12-.21-1.27-2,.94-3.1,2.92a33.55,33.55,0,0,0-2.25,5.22c-.12.39-.66.48-1.14.48s-1.17.09-1.14-.48.15-2.76.45-4.8a12.3,12.3,0,0,1,1-4c.3-.3.72-.21,1.11-.21s1,.21.84.66-1,4.21-1,4.63c-.06.24,0,.39.12.39s.24-.06.33-.24a25.28,25.28,0,0,1,1.8-3.15c.9-1.3,2.19-2.71,3.58-2.38a2.43,2.43,0,0,1,1.65,2.41c0,1-.63,3.78-.78,4.74-.06.39-.3,1.56.09,1.68s1.23-.39,1.86-1.11A8.48,8.48,0,0,0,132,59.18a.36.36,0,0,1,.54-.21c.12.09.18.27.06.6A8.33,8.33,0,0,1,131,61.94"/><path class="cls-4" d="M161.18,58.42c-.09.24-.21.45-.45.45h-6.16c-.27,0-.54-.21-.45-.45l.3-.75c.09-.24.18-.45.45-.45H161c.24,0,.54.21.45.45Z"/><path class="cls-4" d="M87.45,58.42c-.09.24-.22.45-.46.45H80.84c-.27,0-.54-.21-.45-.45l.3-.75c.09-.24.18-.45.45-.45h6.15c.24,0,.55.21.46.45Z"/><path class="cls-2" d="M79.17,89.46h6.2c1.92,0,3,1.72,3,5.29s-3.53,4.67-4.75,4.67-4.44-3.09-4.44-3.82Z"/></g></g><g class="cls-7"><g class="cls-7"><path class="cls-4" d="M298.16,94.32a1.49,1.49,0,1,1-1.49-1.49,1.49,1.49,0,0,1,1.49,1.49"/><path class="cls-4" d="M298.16,105.17a1.49,1.49,0,1,1-1.49-1.49,1.49,1.49,0,0,1,1.49,1.49"/><path class="cls-8" d="M298.16,116a1.49,1.49,0,1,1-1.49-1.48,1.49,1.49,0,0,1,1.49,1.48"/><path class="cls-4" d="M298.16,126.86a1.49,1.49,0,1,1-1.49-1.49,1.49,1.49,0,0,1,1.49,1.49"/><path class="cls-4" d="M298.16,137.71a1.49,1.49,0,1,1-1.49-1.49,1.49,1.49,0,0,1,1.49,1.49"/><path class="cls-4" d="M298.16,148.56a1.49,1.49,0,1,1-1.49-1.49,1.49,1.49,0,0,1,1.49,1.49"/><path class="cls-4" d="M298.16,83.47A1.49,1.49,0,1,1,296.67,82a1.49,1.49,0,0,1,1.49,1.49"/><line class="cls-9" x1="336.17" y1="83.47" x2="304.98" y2="83.47"/><line class="cls-9" x1="304.98" y1="94.32" x2="326.19" y2="94.32"/><line class="cls-9" x1="304.98" y1="105.17" x2="315.16" y2="105.17"/><line class="cls-9" x1="257.17" y1="148.56" x2="288.36" y2="148.56"/><line class="cls-9" x1="288.36" y1="137.71" x2="267.15" y2="137.71"/><line class="cls-9" x1="288.36" y1="126.86" x2="278.19" y2="126.86"/><path class="cls-8" d="M350.47,105.19v3.34a1,1,0,0,1-1,1,1,1,0,0,1-1-1V82.15a1,1,0,0,1,1-1,1,1,0,0,1,1,1V93.09A10.17,10.17,0,0,1,359,88.6a10.54,10.54,0,0,1,0,21.08,10.08,10.08,0,0,1-8.48-4.49m16.79-6a8.4,8.4,0,1,0-16.79-.36v.36a8.4,8.4,0,1,0,16.79,0"/><path class="cls-8" d="M376.81,84.38a1.36,1.36,0,0,1,1.4-1.39,1.38,1.38,0,0,1,1.39,1.39,1.41,1.41,0,0,1-1.39,1.39,1.39,1.39,0,0,1-1.4-1.39m.4,5.33a1,1,0,0,1,1-1,1,1,0,0,1,1,1v18.82a1,1,0,0,1-1,1,1,1,0,0,1-1-1Z"/><path class="cls-8" d="M387.12,99.14a10.41,10.41,0,1,1,10.42,10.54,10.38,10.38,0,0,1-10.42-10.54m18.82,0a8.42,8.42,0,1,0-8.4,8.71,8.5,8.5,0,0,0,8.4-8.71"/><path class="cls-4" d="M307.08,134.55a15.42,15.42,0,0,1,28-9.36.76.76,0,0,1,.13.35.42.42,0,0,1-.44.44.55.55,0,0,1-.4-.22,14.26,14.26,0,0,0-11.82-6.24,14.67,14.67,0,0,0-14.55,15c0,8.4,6.41,15,14.55,15a14.27,14.27,0,0,0,11.82-6.25.55.55,0,0,1,.4-.22.42.42,0,0,1,.44.44.83.83,0,0,1-.13.36,15.42,15.42,0,0,1-28-9.37"/><path class="cls-4" d="M341.32,119.39a.41.41,0,0,1,.44-.44.41.41,0,0,1,.44.44v30.33a.41.41,0,0,1-.44.44.42.42,0,0,1-.44-.44Z"/><path class="cls-4" d="M348.36,122.77a.88.88,0,1,1,.88.88.88.88,0,0,1-.88-.88m.44,5a.41.41,0,0,1,.44-.44.41.41,0,0,1,.44.44v22a.42.42,0,0,1-.44.44.41.41,0,0,1-.44-.44Z"/><path class="cls-4" d="M356.27,137.1c0-6.55,4.09-10,9.19-10s9.19,3.47,9.19,10v12.62a.42.42,0,0,1-.44.44.41.41,0,0,1-.44-.44V137.1c0-6.11-3.65-9.23-8.31-9.23s-8.31,3.12-8.31,9.23v12.62a.44.44,0,1,1-.88,0Z"/><path class="cls-4" d="M380.8,122.77a.88.88,0,1,1,.88.88.89.89,0,0,1-.88-.88m.44,5a.44.44,0,1,1,.88,0v22a.44.44,0,1,1-.88,0Z"/><path class="cls-4" d="M387.62,138.73a11.48,11.48,0,0,1,11.43-11.65,11.36,11.36,0,0,1,8.83,4.18.62.62,0,0,1,.18.39.41.41,0,0,1-.44.4.53.53,0,0,1-.35-.18,10.33,10.33,0,0,0-8.22-4,10.86,10.86,0,0,0,0,21.72,10.33,10.33,0,0,0,8.22-4,.49.49,0,0,1,.35-.18.41.41,0,0,1,.44.4.64.64,0,0,1-.18.39,11.36,11.36,0,0,1-8.83,4.18,11.49,11.49,0,0,1-11.43-11.65"/><polygon class="cls-10" points="256.79 174.1 259.59 174.1 259.59 174.28 256.61 174.28 256.61 168.02 256.79 168.02 256.79 174.1"/><path class="cls-10" d="M266.48,172.37h-3.79l-.87,1.9h-.21l2.86-6.25h.2l2.9,6.25h-.21Zm-.08-.18-1.83-4-1.8,4Z"/><path class="cls-10" d="M270.37,168h2.52a2.16,2.16,0,0,1,1.4.41,1.37,1.37,0,0,1,.5,1.14,1.42,1.42,0,0,1-.32,1,1.49,1.49,0,0,1-.91.48,1.91,1.91,0,0,1,1.15.5,1.45,1.45,0,0,1,.41,1.08,1.47,1.47,0,0,1-.58,1.24,2.72,2.72,0,0,1-1.65.43h-2.52Zm.18.18V171h2.34a2,2,0,0,0,1.27-.36,1.23,1.23,0,0,0,.45-1,1.21,1.21,0,0,0-.45-1,2,2,0,0,0-1.27-.36Zm0,2.92v3h2.34a2.57,2.57,0,0,0,1.52-.4,1.29,1.29,0,0,0,.54-1.11,1.26,1.26,0,0,0-.54-1.09,2.65,2.65,0,0,0-1.52-.38Z"/><path class="cls-10" d="M278.73,168.94a3.26,3.26,0,0,1,4.54,0,3.06,3.06,0,0,1,0,4.41,3.26,3.26,0,0,1-4.54,0,3.06,3.06,0,0,1,0-4.41m4.41.12a3.09,3.09,0,0,0-4.28,0,2.78,2.78,0,0,0-.89,2.08,2.82,2.82,0,0,0,.89,2.09,3.07,3.07,0,0,0,4.28,0,2.82,2.82,0,0,0,.89-2.09,2.78,2.78,0,0,0-.89-2.08"/><path class="cls-10" d="M291.89,170.05a2,2,0,0,1-.43,1.32,2.06,2.06,0,0,1-1.19.69l1.62,2.21h-.23l-1.59-2.18a4.67,4.67,0,0,1-.57,0h-1.94v2.14h-.18V168h2.12a2.68,2.68,0,0,1,1.76.53,1.87,1.87,0,0,1,.63,1.5m-4.33,1.9h1.94a2.44,2.44,0,0,0,1.63-.5,1.75,1.75,0,0,0,.58-1.4,1.72,1.72,0,0,0-.58-1.37,2.49,2.49,0,0,0-1.63-.48h-1.94Z"/><path class="cls-10" d="M299.23,172.37h-3.79l-.87,1.9h-.22l2.87-6.25h.19l2.9,6.25h-.21Zm-.08-.18-1.84-4-1.79,4Z"/><polygon class="cls-10" points="306.03 168.2 303.88 168.2 303.88 174.28 303.7 174.28 303.7 168.2 301.55 168.2 301.55 168.02 306.03 168.02 306.03 168.2"/><path class="cls-10" d="M308.66,168.94a3.25,3.25,0,0,1,4.53,0,3,3,0,0,1,0,4.41,3.25,3.25,0,0,1-4.53,0,3.06,3.06,0,0,1,0-4.41m4.41.12a3.09,3.09,0,0,0-4.28,0,2.87,2.87,0,0,0,0,4.17,3,3,0,0,0,2.14.87,2.93,2.93,0,0,0,2.13-.87,2.88,2.88,0,0,0,0-4.17"/><rect class="cls-10" x="317.3" y="168.02" width="0.18" height="6.25"/><path class="cls-10" d="M325.86,170.05a2,2,0,0,1-.43,1.32,2,2,0,0,1-1.19.69l1.62,2.21h-.23L324,172.09a4.67,4.67,0,0,1-.57,0h-1.94v2.14h-.18V168h2.12a2.68,2.68,0,0,1,1.76.53,1.87,1.87,0,0,1,.63,1.5m-4.33,1.9h1.94a2.44,2.44,0,0,0,1.63-.5,1.75,1.75,0,0,0,.58-1.4,1.72,1.72,0,0,0-.58-1.37,2.49,2.49,0,0,0-1.63-.48h-1.94Z"/><polygon class="cls-10" points="333.29 168.2 329.56 168.2 329.56 170.97 332.88 170.97 332.88 171.14 329.56 171.14 329.56 174.1 333.41 174.1 333.41 174.28 329.38 174.28 329.38 168.02 333.29 168.02 333.29 168.2"/><path class="cls-10" d="M341,168h2.46a3.12,3.12,0,0,1,2.26.92,3.07,3.07,0,0,1,0,4.42,3.11,3.11,0,0,1-2.26.91H341Zm.18.18v5.9h2.28a2.93,2.93,0,0,0,2.13-.87,2.76,2.76,0,0,0,.89-2.08,2.8,2.8,0,0,0-.88-2.08,2.94,2.94,0,0,0-2.14-.87Z"/><path class="cls-10" d="M349.27,168.09a.2.2,0,0,1,.16-.07.26.26,0,0,1,.17.07.27.27,0,0,1,.06.17.53.53,0,0,1-.08.23l-.28.42h-.18l.24-.42a.23.23,0,0,1-.16-.23.21.21,0,0,1,.07-.17"/><path class="cls-10" d="M356.71,172.37h-3.79l-.87,1.9h-.21L354.7,168h.2l2.9,6.25h-.21Zm-.08-.18-1.83-4-1.8,4Z"/><polygon class="cls-10" points="365.46 174.28 365.19 174.28 360.78 168.2 360.78 174.28 360.6 174.28 360.6 168.02 360.87 168.02 365.28 174.1 365.28 168.02 365.46 168.02 365.46 174.28"/><path class="cls-10" d="M373.14,172.37h-3.79l-.87,1.9h-.21l2.86-6.25h.2l2.9,6.25H374Zm-.08-.18-1.83-4-1.8,4Z"/><polygon class="cls-10" points="377.21 174.1 380.01 174.1 380.01 174.28 377.03 174.28 377.03 168.02 377.21 168.02 377.21 174.1"/><polygon class="cls-10" points="384.67 171.87 384.67 174.28 384.49 174.28 384.49 171.87 381.94 168.02 382.16 168.02 384.58 171.69 386.97 168.02 387.19 168.02 384.67 171.87"/><path class="cls-10" d="M391.55,168a2.94,2.94,0,0,1,1.66.46l-.08.14a2.89,2.89,0,0,0-1.58-.42,2.35,2.35,0,0,0-1.32.33,1,1,0,0,0-.49.88,1.17,1.17,0,0,0,.2.71,1.42,1.42,0,0,0,.54.46,5.55,5.55,0,0,0,.73.29l.8.26a4.45,4.45,0,0,1,.73.31,1.37,1.37,0,0,1,.53.51,1.46,1.46,0,0,1,.2.8,1.31,1.31,0,0,1-.57,1.11,2.59,2.59,0,0,1-1.55.41,3,3,0,0,1-1.16-.23,2.78,2.78,0,0,1-1-.64l.12-.13a2.58,2.58,0,0,0,.91.6,2.86,2.86,0,0,0,1.1.23,2.49,2.49,0,0,0,1.42-.37,1.15,1.15,0,0,0,.53-1,1.27,1.27,0,0,0-.21-.74,1.34,1.34,0,0,0-.53-.47,4.44,4.44,0,0,0-.73-.29L391,171a4.45,4.45,0,0,1-.73-.31,1.36,1.36,0,0,1-.54-.5,1.42,1.42,0,0,1-.2-.78,1.19,1.19,0,0,1,.54-1,2.54,2.54,0,0,1,1.45-.38"/><polygon class="cls-10" points="400.78 168.2 397.05 168.2 397.05 170.97 400.37 170.97 400.37 171.14 397.05 171.14 397.05 174.1 400.91 174.1 400.91 174.28 396.87 174.28 396.87 168.02 400.78 168.02 400.78 168.2"/><path class="cls-10" d="M405.76,168a3,3,0,0,1,1.67.46l-.09.14a2.87,2.87,0,0,0-1.58-.42,2.37,2.37,0,0,0-1.32.33,1,1,0,0,0-.49.88,1.24,1.24,0,0,0,.2.71,1.42,1.42,0,0,0,.54.46,6.17,6.17,0,0,0,.73.29l.8.26a4.45,4.45,0,0,1,.73.31,1.46,1.46,0,0,1,.54.51,1.56,1.56,0,0,1,.2.8,1.32,1.32,0,0,1-.58,1.11,2.58,2.58,0,0,1-1.54.41,3,3,0,0,1-1.17-.23,2.78,2.78,0,0,1-1-.64l.12-.13a2.58,2.58,0,0,0,.91.6,2.87,2.87,0,0,0,1.11.23,2.45,2.45,0,0,0,1.41-.37,1.15,1.15,0,0,0,.53-1,1.34,1.34,0,0,0-.2-.74,1.44,1.44,0,0,0-.54-.47,4.7,4.7,0,0,0-.72-.29l-.81-.25a4.85,4.85,0,0,1-.73-.31,1.36,1.36,0,0,1-.54-.5,1.51,1.51,0,0,1-.2-.78,1.19,1.19,0,0,1,.54-1,2.54,2.54,0,0,1,1.45-.38"/></g></g><line class="cls-11" x1="226.77" y1="50.6" x2="226.77" y2="201.94"/></svg>