<svg id="Calque_1" data-name="Calque 1" xmlns="http://www.w3.org/2000/svg" viewBox="0 0 2975 968"><defs><style>.cls-1{fill:#fce14b;}</style></defs><title>home-text</title><path class="cls-1" d="M396.38,378.17q41.26,0,68.89,30t27.61,74.74q0,44.77-27.61,74.74t-68.69,30q-36.75,0-58.52-25.87V664.61H284.68V383.51H337v22Q358.79,378.18,396.38,378.17Zm-9.86,49.9q-22.59,0-36.86,15.5t-14.27,39.32q0,23.82,14.27,39.32t36.86,15.51q23.21,0,37.27-15.71t14.06-39.12q0-23.4-14.06-39.11T386.52,428.07Z"/><path class="cls-1" d="M631.69,378.17q46.39,0,77.1,29.88t30.69,74.84q0,45-30.69,74.85t-77.1,29.87q-46.2,0-76.8-29.87T524.3,482.89q0-45,30.59-74.84T631.69,378.17Zm37.88,65.3q-15.09-15.41-37.88-15.4t-37.79,15.4q-15,15.4-15,39.42t15,39.43q15,15.39,37.79,15.4t37.88-15.4q15.09-15.41,15.09-39.43T669.57,443.47Z"/><path class="cls-1" d="M891.22,378.17q16,0,27.93,4.32l-8,53.18q-14.37-6.37-32.44-6.37-19.1,0-30.49,11.6t-11.4,33.16V582.48H783.22v-199h51.95v21.77Q853.23,378.17,891.22,378.17Z"/><path class="cls-1" d="M1104.15,383.51v47.64h-72.07v72.69q0,17.66,8.11,25.77t21.66,8.11q16,0,37.37-12.94l19.71,41.89q-30.6,20.94-65.91,20.94-36.75,0-55.64-20.33t-18.89-59.13v-77h-38.4V383.51h38.4V324.38h53.59v59.13Z"/><path class="cls-1" d="M1281.35,383.51v47.64h-61.8V582.48H1166V431.15h-37.17V383.51H1166V358.87q0-35.73,18.47-56.46t52.78-20.74q34.27,0,61.18,17.86L1277,341.21q-17.86-9.65-34.09-9.65-23.4,0-23.4,27.93v24Z"/><path class="cls-1" d="M1410.3,378.17q46.41,0,77.1,29.88t30.7,74.84q0,45-30.7,74.85t-77.1,29.87q-46.2,0-76.79-29.87t-30.6-74.85q0-45,30.6-74.84T1410.3,378.17Zm37.89,65.3q-15.11-15.41-37.89-15.4t-37.78,15.4q-15,15.4-15,39.42t15,39.43q15,15.39,37.78,15.4t37.89-15.4q15.09-15.41,15.09-39.43T1448.19,443.47Z"/><path class="cls-1" d="M1615.43,286.8V582.48h-53.6V286.8Z"/><path class="cls-1" d="M1673.94,293.88a32.79,32.79,0,0,1,24.23-9.95,34.55,34.55,0,0,1,24.43,58.72q-9.86,9.86-24.43,9.86a33.67,33.67,0,0,1-34.09-34.09A33.55,33.55,0,0,1,1673.94,293.88Zm51.33,89.63v199h-53.59v-199Z"/><path class="cls-1" d="M1876.6,378.17q46.39,0,77.1,29.88t30.7,74.84q0,45-30.7,74.85t-77.1,29.87q-46.2,0-76.8-29.87t-30.59-74.85q0-45,30.59-74.84T1876.6,378.17Zm37.88,65.3q-15.09-15.41-37.88-15.4t-37.78,15.4q-15,15.4-15,39.42t15,39.43q15,15.39,37.78,15.4t37.88-15.4q15.09-15.41,15.09-39.43T1914.48,443.47Z"/><path class="cls-1" d="M2040.3,537.23a25.09,25.09,0,0,1,0,50.18,25.74,25.74,0,0,1-25.22-25.22,23.73,23.73,0,0,1,7.57-17.52A24.39,24.39,0,0,1,2040.3,537.23Z"/></svg>