<svg xmlns="http://www.w3.org/2000/svg" viewBox="0 0 512 512"><path d="M504.8 72.6L439.4 7.1c-9.5-9.5-25-9.5-34.6 0L281.6 130.4a7.91 7.91 0 1 0 11.2 11.2L416 18.3c1.6-1.6 3.8-2.5 6.1-2.5s4.5.9 6.1 2.5l65.5 65.5c1.6 1.6 2.5 3.8 2.5 6.1s-.9 4.5-2.5 6.1l-16.1 16.1L435.5 70a7.91 7.91 0 1 0-11.2 11.2l42.1 42.1-18.4 18.4-18.5-18.5a7.91 7.91 0 1 0-11.2 11.2l18.5 18.5-18.4 18.4-18.4-18.7a7.91 7.91 0 1 0-11.2 11.2l18.5 18.5-18.3 18.4-42.1-42.1a7.91 7.91 0 1 0-11.2 11.2l42.1 42.1-18.4 18.4-18.4-18.6a7.91 7.91 0 1 0-11.2 11.2l18.5 18.5-15.5 15.5-77.7-77.7 14.5-14.5a7.91 7.91 0 1 0-11.2-11.2L243.9 168 98.2 22.3C88 12.1 74.5 6.5 60.2 6.5s-27.8 5.6-38 15.7C12.1 32.4 6.5 45.9 6.5 60.2s5.6 27.8 15.7 38L168 243.9 7.2 404.8c-9.5 9.5-9.5 25 0 34.6l65.5 65.5c4.6 4.6 10.8 7.2 17.3 7.2s12.7-2.5 17.3-7.2L268.1 344l11.5 11.5a7.91 7.91 0 1 0 11.2-11.2L275 328.5c-.3-.5-.7-.9-1.1-1.4s-.9-.8-1.4-1.1L101.2 154.8l21.2-21.2 13.1 13.1c1.5 1.5 3.6 2.3 5.6 2.3s4-.8 5.6-2.3a7.91 7.91 0 0 0 0-11.2l-13.1-13.1 21.2-21.2 171.7 171.7c.2.3.5.6.7.8s.5.5.8.7l117.3 117.3-21.2 21.2-118.4-118.3c-.1-.1-.1-.2-.2-.2l-47.2-47.2c-.1-.1-.2-.1-.2-.2l-83.3-83.3a7.91 7.91 0 1 0-11.2 11.2l249.3 249.3-21.2 21.2-75.1-75.1a7.91 7.91 0 1 0-11.2 11.2l80.7 80.7c.8.8 1.7 1.4 2.7 1.8l95.5 37.1c1.5.6 3.1.9 4.6.9 3.3 0 6.6-1.3 9.1-3.8 3.6-3.6 4.7-9 2.9-13.7l-37.1-95.4c-.4-1-1-2-1.8-2.7l-118-118 160.9-160.9c9.5-9.8 9.5-25.4-.1-34.9zM256.9 332.8l-15.5 15.5-18.5-18.5a7.91 7.91 0 1 0-11.2 11.2l18.5 18.5-18.4 18.4-42.1-42.1a7.91 7.91 0 1 0-11.2 11.2l42.1 42.1-18.4 18.4-18.5-18.5a7.91 7.91 0 1 0-11.2 11.2l18.5 18.5-18.4 18.4-18.5-18.5a7.91 7.91 0 1 0-11.2 11.2l18.5 18.5-18.4 18.4-42.1-42.1a7.91 7.91 0 1 0-11.2 11.2l42.1 42.1L96 493.7c-1.6 1.6-3.8 2.5-6.1 2.5s-4.5-.9-6.1-2.5l-65.5-65.5c-3.4-3.4-3.4-8.9 0-12.2l160.9-160.9 77.7 77.7zM33.4 87c-14.8-14.8-14.8-38.8 0-53.6s38.8-14.8 53.6 0l25 25L58.4 112l-25-25zm83.4 29.8L90 143.6l-20.4-20.4 53.6-53.6L143.6 90l-26.8 26.8zm366.9 366.9l-77.9-30.2 47.6-47.6 30.3 77.8z" fill="#fff"/></svg>