<svg xmlns="http://www.w3.org/2000/svg" viewBox="0 0 512 512" fill-rule="evenodd" fill="#fff"><path d="M471.6 206.7H130.4l327.7-94.9c2.5-.7 4.7-2.5 6-4.8s1.6-5.1.8-7.6l-17.1-59.2C440.9 16.5 418.9 0 394.3 0c-5.2 0-10.4.7-15.4 2.2L71.2 91.3c-14.2 4.1-26 13.6-33.2 26.6-7.2 13.1-8.9 28.1-4.8 42.3L50 218.1v238.3c0 30.7 25 55.7 55.6 55.7h120.2c5.5 0 10-4.5 10-10s-4.5-10-10-10H105.6C86 492 70 476 70 456.3v-136h391.4v136.1c0 19.7-16 35.7-35.7 35.7H305.8c-5.5 0-10 4.5-10 10s4.5 10 10 10H426c30.7 0 55.7-25 55.7-55.7V216.7c-.1-5.5-4.6-10-10.1-10zm-176.3 93.6l42.5-73.6H393l-42.5 73.6h-55.2zm-78.4 0l42.5-73.6h55.3l-42.5 73.6h-55.3zm-78.4 0l42.5-73.6h55.3l-42.5 73.6h-55.3zm37.2-129.5l-71.1-68.3L157.9 87c.4.5.8 1.1 1.3 1.5l71.1 68.3-53.3 15.5c-.3-.5-.8-1-1.3-1.5zM309.7 45l71.1 68.3-53.3 15.4c-.4-.5-.8-1.1-1.3-1.5l-71.1-68.3 53.3-15.4c.4.5.8 1 1.3 1.5zm-75.2 21.8l71.1 68.3-53.3 15.4c-.4-.5-.8-1.1-1.3-1.5l-71.1-68.3 53.3-15.4c.3.5.8 1 1.3 1.5zm149.9-45.4c3.2-.9 6.5-1.4 9.8-1.4 15.8 0 29.9 10.6 34.3 25.7l14.4 49.6-40.1 11.6c-.4-.5-.8-1.1-1.3-1.5l-71.1-68.3 54-15.7zM55.5 127.6c4.6-8.4 12.2-14.4 21.3-17.1l5.9-1.7c.4.5.8 1.1 1.3 1.5l71.1 68.3-88.3 25.6-14.4-49.6c-2.6-9-1.5-18.6 3.1-27zM70 226.7h88l-42.5 73.6H70v-73.6zm303.6 73.6l42.5-73.6h45.5v73.6h-88zm-38.7 104.8c0-3.6-1.9-6.9-5-8.7L242 345.7c-3.1-1.8-6.9-1.8-10 0s-5 5.1-5 8.7v101.4c0 3.6 1.9 6.9 5 8.7 1.5.9 3.3 1.3 5 1.3s3.5-.4 5-1.3l87.9-50.7c3.1-1.8 5-5.1 5-8.7zm-87.8 33.4v-66.8l57.9 33.4-57.9 33.4zm18.7 53.5c-5.5 0-10 4.5-10 10s4.5 10 10 10 10-4.5 10-10-4.5-10-10-10z"/></svg>