<svg xmlns="http://www.w3.org/2000/svg" height="512" viewBox="0 -25 424 424" width="512" fill="#fff"><path d="M167.3 272.133a6.97 6.97 0 0 1-4.531-1.672l-45.297-38.57a7 7 0 0 1-2.461-5.332 7.01 7.01 0 0 1 2.461-5.328l45.297-38.57a7 7 0 0 1 9.867.789 7 7 0 0 1-.793 9.867l-39.035 33.242 39.035 33.242a7 7 0 0 1 .793 9.867c-1.387 1.63-3.355 2.465-5.336 2.465zm89.42 0c-1.98 0-3.95-.836-5.332-2.465a7 7 0 0 1 .789-9.867l39.035-33.242-39.035-33.242a7 7 0 0 1 9.074-10.657l45.297 38.57a7 7 0 0 1 0 10.66l-45.297 38.57a6.97 6.97 0 0 1-4.531 1.672zm0 0"/><path d="M195.965 301.063a7.12 7.12 0 0 1-1.453-.152c-3.78-.797-6.203-4.512-5.406-8.293l28.23-134.035a7 7 0 1 1 13.699 2.887l-28.23 134.035c-.695 3.297-3.602 5.56-6.84 5.56zM377 374.086H47c-25.914 0-47-21.082-47-47V47C0 21.086 21.086 0 47 0h330c25.914 0 47 21.086 47 47v280.086c0 25.918-21.086 47-47 47zM47 14c-18.195 0-33 14.805-33 33v280.086c0 18.195 14.805 33 33 33h330c18.195 0 33-14.805 33-33V47c0-18.195-14.805-33-33-33zm0 0"/><path d="M417 112.1H7a7 7 0 0 1-7-7c0-3.863 3.133-7 7-7h410c3.867 0 7 3.137 7 7a7 7 0 0 1-7 7zM119.602 78.594c-12.2 0-22.152-9.94-22.152-22.152S107.4 34.3 119.602 34.3s22.152 9.938 22.152 22.152-9.937 22.152-22.152 22.152zm0-30.305c-4.492 0-8.152 3.656-8.152 8.152s3.66 8.152 8.152 8.152 8.152-3.656 8.152-8.152-3.656-8.152-8.152-8.152zm0 0"/><path d="M51.54 78.38c-12.215 0-22.152-9.937-22.152-22.152s9.938-22.152 22.152-22.152 22.15 9.936 22.15 22.15S63.754 78.38 51.54 78.38zm0-30.305a8.17 8.17 0 0 0-8.152 8.152c0 4.496 3.66 8.152 8.152 8.152s8.152-3.656 8.152-8.152-3.656-8.152-8.152-8.152zm136.124 30.73c-12.2 0-22.148-9.937-22.148-22.152s9.938-22.148 22.148-22.148 22.152 9.938 22.152 22.148-9.937 22.152-22.152 22.152zm0-30.305a8.16 8.16 0 0 0-8.148 8.152 8.16 8.16 0 0 0 8.148 8.152c4.492 0 8.152-3.656 8.152-8.152s-3.656-8.152-8.152-8.152zm0 0"/></svg>