<?xml version="1.0" encoding="utf-8"?>
<!-- Generator: Adobe Illustrator 24.0.1, SVG Export Plug-In . SVG Version: 6.00 Build 0)  -->
<svg version="1.1" id="Calque_1" xmlns="http://www.w3.org/2000/svg" xmlns:xlink="http://www.w3.org/1999/xlink" x="0px" y="0px"
	 viewBox="0 0 992.1 992.1" style="enable-background:new 0 0 992.1 992.1;" xml:space="preserve">
<style type="text/css">
	.st0{fill:#FFFFFF;}
	.st1{fill:#575756;}
	.st2{fill:#36A9E1;}
	.st3{fill:#575756;stroke:#575756;stroke-width:8;stroke-linecap:round;stroke-miterlimit:10;}
</style>
<rect class="st0" width="992.1" height="992.1"/>
<circle class="st1" cx="328.2" cy="368.5" r="5.7"/>
<circle class="st1" cx="328.2" cy="410.1" r="5.7"/>
<circle class="st2" cx="328.2" cy="451.7" r="5.7"/>
<circle class="st1" cx="328.2" cy="493.3" r="5.7"/>
<circle class="st1" cx="328.2" cy="534.9" r="5.7"/>
<circle class="st1" cx="328.2" cy="576.5" r="5.7"/>
<circle class="st1" cx="328.2" cy="326.9" r="5.7"/>
<line class="st3" x1="479.6" y1="326.9" x2="360.1" y2="326.9"/>
<line class="st3" x1="360.1" y1="368.5" x2="441.4" y2="368.5"/>
<line class="st3" x1="360.1" y1="410.1" x2="399.1" y2="410.1"/>
<line class="st3" x1="176.8" y1="576.5" x2="296.3" y2="576.5"/>
<line class="st3" x1="296.3" y1="534.9" x2="215" y2="534.9"/>
<line class="st3" x1="296.3" y1="493.3" x2="257.3" y2="493.3"/>
<g>
	<path class="st2" d="M534.5,410.2V423c0,2.1-1.7,4-3.8,4c-2.3,0-3.8-1.8-3.8-4V321.9c0-2.1,1.5-3.8,3.8-3.8c2.1,0,3.8,1.7,3.8,3.8
		v41.9c7-10.4,18.8-17.2,32.5-17.2c22.3,0,39.7,17.8,39.7,40.4c0,22.6-17.4,40.4-39.7,40.4C553.2,427.4,541.5,420.7,534.5,410.2z
		 M598.9,387c0-18.8-14.3-33.4-32.2-33.4c-17.5,0-31.6,14-32.2,32v1.4c0,18.8,14.2,33.4,32.2,33.4
		C584.5,420.4,598.9,405.8,598.9,387z"/>
	<path class="st2" d="M635.5,330.4c0-3.1,2.3-5.3,5.3-5.3c2.9,0,5.3,2.3,5.3,5.3c0,2.9-2.4,5.3-5.3,5.3
		C637.8,335.8,635.5,333.3,635.5,330.4z M637,350.9c0-2.1,1.5-3.8,3.8-3.8c2.1,0,3.8,1.7,3.8,3.8V423c0,2.1-1.7,4-3.8,4
		c-2.3,0-3.8-1.8-3.8-4V350.9z"/>
	<path class="st2" d="M675,387c0-22.6,17.5-40.4,40-40.4c22.4,0,39.8,17.8,39.8,40.4c0,22.6-17.4,40.4-39.8,40.4
		C692.5,427.4,675,409.6,675,387z M747.1,387c0-18.6-14.2-33.4-32.2-33.4c-18,0-32.3,14.8-32.3,33.4c0,18.5,14.3,33.4,32.3,33.4
		C732.9,420.4,747.1,405.5,747.1,387z"/>
</g>
<g>
	<path class="st1" d="M368.1,522.8c0-33.9,26.1-60.7,59.2-60.7c20.1,0,37.4,9.9,48,24.8c0.3,0.5,0.5,1,0.5,1.3c0,1-0.7,1.7-1.7,1.7
		c-0.5,0-1.2-0.3-1.5-0.8c-9.8-14.3-26.3-23.9-45.3-23.9c-31.2,0-55.8,25.5-55.8,57.6c0,32.2,24.6,57.6,55.8,57.6
		c19,0,35.6-9.6,45.3-23.9c0.3-0.5,1-0.8,1.5-0.8c1,0,1.7,0.7,1.7,1.7c0,0.3-0.2,0.8-0.5,1.3c-10.6,14.8-28,24.8-48,24.8
		C394.2,583.5,368.1,556.7,368.1,522.8z"/>
	<path class="st1" d="M499.4,464.6c0-1,0.7-1.7,1.7-1.7c1,0,1.7,0.7,1.7,1.7v116.3c0,1-0.7,1.7-1.7,1.7c-1,0-1.7-0.7-1.7-1.7V464.6z
		"/>
	<path class="st1" d="M526.4,477.6c0-1.9,1.5-3.4,3.4-3.4c1.9,0,3.4,1.5,3.4,3.4c0,1.9-1.5,3.4-3.4,3.4
		C527.9,481,526.4,479.5,526.4,477.6z M528,496.7c0-1,0.7-1.7,1.7-1.7c1,0,1.7,0.7,1.7,1.7v84.3c0,1-0.7,1.7-1.7,1.7
		c-1,0-1.7-0.7-1.7-1.7V496.7z"/>
	<path class="st1" d="M556.7,532.6c0-25.1,15.7-38.4,35.2-38.4c19.7,0,35.2,13.3,35.2,38.4v48.4c0,1-0.7,1.7-1.7,1.7
		c-1,0-1.7-0.7-1.7-1.7v-48.4c0-23.4-14-35.4-31.9-35.4c-17.7,0-31.9,12-31.9,35.4v48.4c0,1-0.7,1.7-1.7,1.7c-1,0-1.7-0.7-1.7-1.7
		V532.6z"/>
	<path class="st1" d="M650.8,477.6c0-1.9,1.5-3.4,3.4-3.4c1.9,0,3.4,1.5,3.4,3.4c0,1.9-1.5,3.4-3.4,3.4
		C652.3,481,650.8,479.5,650.8,477.6z M652.4,496.7c0-1,0.7-1.7,1.7-1.7c1,0,1.7,0.7,1.7,1.7v84.3c0,1-0.7,1.7-1.7,1.7
		c-1,0-1.7-0.7-1.7-1.7V496.7z"/>
	<path class="st1" d="M676.9,538.8c0-24.9,19.6-44.7,43.8-44.7c14,0,25.6,6.2,33.9,16c0.3,0.3,0.7,1,0.7,1.5c0,0.8-0.7,1.5-1.7,1.5
		c-0.3,0-0.8-0.2-1.3-0.7c-7.4-9.4-18.5-15.3-31.5-15.3c-22.4,0-40.5,18.4-40.5,41.6c0,23.3,18,41.6,40.5,41.6
		c13,0,24.1-5.9,31.5-15.3c0.5-0.5,1-0.7,1.3-0.7c1,0,1.7,0.7,1.7,1.5c0,0.5-0.3,1.2-0.7,1.5c-8.3,9.8-19.9,16-33.9,16
		C696.4,583.5,676.9,563.7,676.9,538.8z"/>
</g>
<g>
	<path d="M175.3,674.4H186v0.7h-11.4v-24h0.7V674.4z"/>
	<path d="M212.5,667.8h-14.5l-3.3,7.3h-0.8l11-24h0.8l11.1,24h-0.8L212.5,667.8z M212.1,667.1l-7-15.2l-6.9,15.2H212.1z"/>
	<path d="M227.4,651.1h9.6c2.3,0,4.1,0.5,5.4,1.6c1.3,1,1.9,2.5,1.9,4.4c0,1.5-0.4,2.7-1.2,3.7c-0.8,1-2,1.6-3.5,1.8
		c1.9,0.2,3.4,0.9,4.4,1.9c1.1,1.1,1.6,2.4,1.6,4.1c0,2-0.7,3.6-2.2,4.7c-1.5,1.1-3.6,1.7-6.3,1.7h-9.6V651.1z M228.1,651.8v10.5h9
		c2.1,0,3.7-0.5,4.9-1.4c1.2-0.9,1.7-2.2,1.7-3.9c0-1.7-0.6-3-1.7-3.9c-1.2-0.9-2.8-1.4-4.9-1.4H228.1z M228.1,663v11.4h9
		c2.5,0,4.5-0.5,5.8-1.5c1.4-1,2.1-2.4,2.1-4.3c0-1.8-0.7-3.2-2.1-4.2c-1.4-1-3.3-1.5-5.8-1.5H228.1z"/>
	<path d="M259.4,654.6c2.4-2.3,5.3-3.5,8.7-3.5c3.4,0,6.3,1.2,8.7,3.5c2.4,2.3,3.6,5.2,3.6,8.5c0,3.3-1.2,6.1-3.6,8.5
		c-2.4,2.4-5.3,3.5-8.7,3.5c-3.4,0-6.3-1.2-8.7-3.5c-2.4-2.4-3.6-5.2-3.6-8.5C255.8,659.8,257,657,259.4,654.6z M276.3,655.1
		c-2.3-2.2-5-3.3-8.2-3.3c-3.2,0-5.9,1.1-8.2,3.3c-2.3,2.2-3.4,4.9-3.4,8c0,3.1,1.1,5.8,3.4,8c2.3,2.2,5,3.3,8.2,3.3
		c3.2,0,5.9-1.1,8.2-3.3c2.3-2.2,3.4-4.9,3.4-8C279.7,660,278.6,657.3,276.3,655.1z"/>
	<path d="M309.8,658.9c0,2.1-0.5,3.7-1.6,5.1c-1.1,1.3-2.6,2.2-4.6,2.6l6.2,8.5H309l-6.1-8.4c-0.9,0.1-1.6,0.1-2.2,0.1h-7.4v8.2
		h-0.7v-24h8.1c2.9,0,5.2,0.7,6.8,2C309,654.5,309.8,656.4,309.8,658.9z M293.2,666.2h7.4c2.7,0,4.8-0.6,6.3-1.9
		c1.5-1.3,2.2-3.1,2.2-5.4c0-2.3-0.7-4-2.2-5.2s-3.6-1.9-6.3-1.9h-7.4V666.2z"/>
	<path d="M338,667.8h-14.5l-3.3,7.3h-0.8l11-24h0.8l11.1,24h-0.8L338,667.8z M337.7,667.1l-7-15.2l-6.9,15.2H337.7z"/>
	<path d="M364.1,651.8h-8.2v23.3h-0.7v-23.3h-8.2v-0.7h17.1V651.8z"/>
	<path d="M374.2,654.6c2.4-2.3,5.3-3.5,8.7-3.5c3.4,0,6.3,1.2,8.7,3.5c2.4,2.3,3.6,5.2,3.6,8.5c0,3.3-1.2,6.1-3.6,8.5
		c-2.4,2.4-5.3,3.5-8.7,3.5c-3.4,0-6.3-1.2-8.7-3.5c-2.4-2.4-3.6-5.2-3.6-8.5C370.5,659.8,371.8,657,374.2,654.6z M391.1,655.1
		c-2.3-2.2-5-3.3-8.2-3.3c-3.2,0-5.9,1.1-8.2,3.3c-2.3,2.2-3.4,4.9-3.4,8c0,3.1,1.1,5.8,3.4,8c2.3,2.2,5,3.3,8.2,3.3
		c3.2,0,5.9-1.1,8.2-3.3c2.3-2.2,3.4-4.9,3.4-8C394.5,660,393.3,657.3,391.1,655.1z"/>
	<path d="M408,675.1h-0.7v-24h0.7V675.1z"/>
	<path d="M440.1,658.9c0,2.1-0.5,3.7-1.6,5.1c-1.1,1.3-2.6,2.2-4.6,2.6l6.2,8.5h-0.9l-6.1-8.4c-0.9,0.1-1.6,0.1-2.2,0.1h-7.4v8.2
		h-0.7v-24h8.1c2.9,0,5.2,0.7,6.8,2C439.3,654.5,440.1,656.4,440.1,658.9z M423.5,666.2h7.4c2.7,0,4.8-0.6,6.3-1.9
		c1.5-1.3,2.2-3.1,2.2-5.4c0-2.3-0.7-4-2.2-5.2c-1.5-1.2-3.6-1.9-6.3-1.9h-7.4V666.2z"/>
	<path d="M468.6,651.8h-14.3v10.6H467v0.7h-12.7v11.3h14.8v0.7h-15.5v-24h15V651.8z"/>
	<path d="M498,651.1h9.4c3.4,0,6.3,1.2,8.7,3.5c2.4,2.3,3.6,5.2,3.6,8.5c0,3.3-1.2,6.1-3.6,8.5c-2.4,2.3-5.3,3.5-8.7,3.5H498V651.1z
		 M498.7,651.8v22.6h8.7c3.2,0,5.9-1.1,8.2-3.3c2.3-2.2,3.4-4.9,3.4-8c0-3.1-1.1-5.8-3.4-8s-5-3.3-8.2-3.3H498.7z"/>
	<path d="M529.9,651.4c0.2-0.2,0.4-0.3,0.6-0.3c0.3,0,0.5,0.1,0.6,0.3c0.2,0.2,0.3,0.4,0.3,0.7c0,0.2-0.1,0.5-0.3,0.9l-1.1,1.6h-0.7
		l0.9-1.6c-0.4-0.2-0.6-0.5-0.6-0.9C529.6,651.7,529.7,651.5,529.9,651.4z"/>
	<path d="M558.4,667.8h-14.5l-3.3,7.3h-0.8l11-24h0.8l11.1,24h-0.8L558.4,667.8z M558.1,667.1l-7-15.2l-6.9,15.2H558.1z"/>
	<path d="M591.9,675.1h-1L574,651.8v23.3h-0.7v-24h1l16.9,23.3v-23.3h0.7V675.1z"/>
	<path d="M621.4,667.8h-14.5l-3.3,7.3h-0.8l11-24h0.8l11.1,24h-0.8L621.4,667.8z M621.1,667.1l-7-15.2l-6.9,15.2H621.1z"/>
	<path d="M637,674.4h10.7v0.7h-11.4v-24h0.7V674.4z"/>
	<path d="M665.6,665.9v9.2h-0.7v-9.2l-9.8-14.7h0.8l9.3,14.1l9.2-14.1h0.8L665.6,665.9z"/>
	<path d="M692,651.1c2.4,0,4.6,0.6,6.4,1.7l-0.3,0.5c-1.7-1.1-3.7-1.6-6-1.6c-2.1,0-3.8,0.4-5.1,1.3c-1.3,0.8-1.9,2-1.9,3.4
		c0,1.1,0.3,2,0.8,2.7c0.5,0.8,1.2,1.3,2.1,1.7c0.8,0.4,1.8,0.8,2.8,1.1s2.1,0.7,3.1,1c1,0.3,1.9,0.7,2.8,1.2c0.8,0.5,1.5,1.1,2,2
		c0.5,0.8,0.8,1.9,0.8,3.1c0,1.8-0.7,3.2-2.2,4.2c-1.5,1.1-3.4,1.6-5.9,1.6c-1.5,0-3-0.3-4.5-0.9c-1.5-0.6-2.7-1.4-3.7-2.5l0.5-0.5
		c0.9,1,2.1,1.7,3.5,2.3c1.4,0.6,2.8,0.9,4.3,0.9c2.3,0,4.1-0.5,5.4-1.4c1.3-0.9,2-2.2,2-3.7c0-1.1-0.3-2.1-0.8-2.8
		c-0.5-0.8-1.2-1.4-2-1.8c-0.8-0.4-1.8-0.8-2.8-1.1c-1-0.3-2-0.6-3.1-1c-1-0.3-2-0.7-2.8-1.2c-0.8-0.4-1.5-1.1-2.1-1.9
		c-0.5-0.8-0.8-1.8-0.8-3c0-1.6,0.7-2.9,2.1-3.9C687.8,651.6,689.7,651.1,692,651.1z"/>
	<path d="M727.4,651.8h-14.3v10.6h12.7v0.7h-12.7v11.3h14.8v0.7h-15.5v-24h15V651.8z"/>
	<path d="M746.5,651.1c2.4,0,4.6,0.6,6.4,1.7l-0.3,0.5c-1.7-1.1-3.7-1.6-6-1.6c-2.1,0-3.8,0.4-5.1,1.3c-1.3,0.8-1.9,2-1.9,3.4
		c0,1.1,0.3,2,0.8,2.7c0.5,0.8,1.2,1.3,2.1,1.7c0.8,0.4,1.8,0.8,2.8,1.1s2.1,0.7,3.1,1c1,0.3,1.9,0.7,2.8,1.2c0.8,0.5,1.5,1.1,2,2
		c0.5,0.8,0.8,1.9,0.8,3.1c0,1.8-0.7,3.2-2.2,4.2c-1.5,1.1-3.4,1.6-5.9,1.6c-1.5,0-3-0.3-4.5-0.9c-1.5-0.6-2.7-1.4-3.7-2.5l0.5-0.5
		c0.9,1,2.1,1.7,3.5,2.3c1.4,0.6,2.8,0.9,4.3,0.9c2.3,0,4.1-0.5,5.4-1.4c1.3-0.9,2-2.2,2-3.7c0-1.1-0.3-2.1-0.8-2.8
		c-0.5-0.8-1.2-1.4-2-1.8c-0.8-0.4-1.8-0.8-2.8-1.1c-1-0.3-2-0.6-3.1-1c-1-0.3-2-0.7-2.8-1.2c-0.8-0.4-1.5-1.1-2.1-1.9
		c-0.5-0.8-0.8-1.8-0.8-3c0-1.6,0.7-2.9,2.1-3.9C742.3,651.6,744.2,651.1,746.5,651.1z"/>
</g>
</svg>
