<svg id="Calque_1" data-name="Calque 1" xmlns="http://www.w3.org/2000/svg" viewBox="0 0 458.22 458.22"><defs><style>.cls-1{fill:#fff;}.cls-2,.cls-4{fill:#575756;}.cls-2,.cls-3{stroke:#fff;stroke-miterlimit:10;stroke-width:2px;}.cls-3{fill:#44b2a4;}</style></defs><title>En roue libre logo</title><rect class="cls-1" width="458.22" height="458.22"/><path class="cls-2" d="M191.75,142.23c31.36,0,53.59,23.34,53.59,53s-22.23,53-53.59,53c-31.52,0-53.58-23.34-53.58-53S160.23,142.23,191.75,142.23Zm0,86.46c19.66,0,32.27-14.8,32.27-33.49s-12.61-33.49-32.27-33.49c-19.84,0-32.26,14.8-32.26,33.49S171.91,228.69,191.75,228.69Z"/><path class="cls-3" d="M283.92,146.79h62l-3.58,20.3h-39l-3,16.87H336.4l-3.52,20H296.81l-3,16.86h40.75l-3.46,19.68H267.42Z"/><path class="cls-3" d="M105.88,146.79h39.19c20.15,0,31.12,12.18,28,29.83-2.89,16.4-12.79,25.61-27.29,29L159,240.49H130.22l-11.73-35-6.16,35h-23Zm34.23,40.6c5.15,0,9.52-5.31,10.48-10.77s-2.24-10.31-7.39-10.31H125.39l-3.71,21.08Z"/><path class="cls-3" d="M230.73,146.79h23.46l-10.57,58.72c-2.24,12.49,3.07,16.86,11.27,16.86,9,0,15.4-4.37,17.65-16.86l10.56-58.72h23.61l-11.18,62.15c-4,22.18-23.26,34.67-44.46,34.67-22,0-35.39-13.12-31.52-34.67Z"/><path class="cls-4" d="M109.21,270.76a.6.6,0,1,1,1.2,0v40.62h18.06a.54.54,0,0,1,0,1.08H109.81a.57.57,0,0,1-.6-.6Z"/><path class="cls-4" d="M158.41,275.38a1.2,1.2,0,1,1,1.2,1.2A1.2,1.2,0,0,1,158.41,275.38Zm.6,6.78a.6.6,0,0,1,1.2,0v30a.6.6,0,0,1-1.2,0Z"/><path class="cls-4" d="M194.41,303.22v8.94a.6.6,0,0,1-1.2,0v-41.4a.6.6,0,1,1,1.2,0V291.1a15.36,15.36,0,0,1,14.4-9.84,15.9,15.9,0,0,1,0,31.8A15.36,15.36,0,0,1,194.41,303.22Zm28.8-6.06a14.4,14.4,0,1,0-28.8-.6v.6a14.41,14.41,0,1,0,28.8,0Z"/><path class="cls-4" d="M255.91,292c0-6.12,3.42-10.74,10.14-10.74a.54.54,0,0,1,.54.54.58.58,0,0,1-.54.54c-5.4,0-8.94,3.54-8.94,9.66v20.16a.6.6,0,1,1-1.2,0Z"/><path class="cls-4" d="M293.71,297.16a15.67,15.67,0,0,1,15.6-15.9,15.35,15.35,0,0,1,10.5,4.08.76.76,0,0,1,.24.54c0,.18-.06.3-.36.66L306,302.8a.62.62,0,0,1-.48.24.54.54,0,0,1-.54-.54.65.65,0,0,1,.18-.42l13.62-16.14a14.11,14.11,0,0,0-9.48-3.6,14.83,14.83,0,0,0,0,29.64,14.07,14.07,0,0,0,11.22-5.46.72.72,0,0,1,.48-.24.55.55,0,0,1,.6.54.89.89,0,0,1-.24.54,15.51,15.51,0,0,1-12.06,5.7A15.67,15.67,0,0,1,293.71,297.16Z"/><path class="cls-4" d="M101.68,358.57l7.34-6.69,1.44.78-9.14,8-1.17-.64,1.74-12,1.44.78Z"/><path class="cls-4" d="M119.11,363.56a7.18,7.18,0,0,1-1.76,2.39,4.26,4.26,0,0,1-2.25,1,4.43,4.43,0,0,1-2.46-.44,4.3,4.3,0,0,1-1.87-1.62,4.35,4.35,0,0,1-.65-2.39,6.69,6.69,0,0,1,.68-2.81l.35-.74a6.94,6.94,0,0,1,1.76-2.38,4.49,4.49,0,0,1,6.62,1,4.25,4.25,0,0,1,.63,2.42,7.23,7.23,0,0,1-.74,2.88Zm-1-1.31a5.09,5.09,0,0,0,.6-3.15,2.89,2.89,0,0,0-4.08-1.93,4.93,4.93,0,0,0-2,2.35l-.36.76a5.14,5.14,0,0,0-.58,3.13,2.9,2.9,0,0,0,4.06,2,5.11,5.11,0,0,0,2-2.39Z"/><path class="cls-4" d="M132.52,363.93l-3.39-1.38-3.84,9.39-1.38-.57,3.84-9.39-3.38-1.38.47-1.14L133,362.8Z"/><path class="cls-4" d="M138.45,372l-2.53-.88-1.51,4.34-1.43-.49,3.75-10.74,3.56,1.24a4.43,4.43,0,0,1,2.5,1.8,3.13,3.13,0,0,1,.14,2.74,3.06,3.06,0,0,1-1.15,1.56,3.45,3.45,0,0,1-1.9.59l.93,5.44,0,.09-1.52-.53Zm-2.12-2,2.17.76a2.58,2.58,0,0,0,1.87,0,2,2,0,0,0,1.14-1.25,2.06,2.06,0,0,0-.06-1.73,2.67,2.67,0,0,0-1.53-1.14l-2.17-.76Z"/><path class="cls-4" d="M152.76,375.77,148,374.38l-1.13,3.87,5.5,1.61-.35,1.18-6.93-2,3.19-10.92,6.86,2-.35,1.17-5.42-1.58-1,3.52,4.74,1.38Z"/><path class="cls-4" d="M164.93,382.9l5.28,1.11-.25,1.2-6.75-1.42,2.34-11.13L167,373Z"/><path class="cls-4" d="M176,386.27l-1.48-.25,1.91-11.21,1.48.25Z"/><path class="cls-4" d="M185.55,385.66l4.41-8.9,1.62.21L186,387.72l-1.32-.17-2.74-11.81,1.62.2Z"/><path class="cls-4" d="M199.08,384.38l-2.66-.2-.34,4.59-1.5-.11.83-11.34,3.76.27a4.49,4.49,0,0,1,2.88,1.09,3.15,3.15,0,0,1,.85,2.62,3.07,3.07,0,0,1-.71,1.8,3.4,3.4,0,0,1-1.68,1.06l2.31,5v.09l-1.6-.11ZM196.51,383l2.3.17a2.63,2.63,0,0,0,1.81-.45,1.92,1.92,0,0,0,.77-1.5,2,2,0,0,0-.51-1.66,2.62,2.62,0,0,0-1.76-.7l-2.3-.17Z"/><path class="cls-4" d="M213.7,386.6l-4.77-.09-1.13,2.95-1.54,0,4.56-11.28,1.31,0,4.13,11.46-1.54,0Zm-4.29-1.31,3.86.08L211.44,380Z"/><path class="cls-4" d="M222.23,389.51l-1.5,0-.25-11.37,1.5,0Z"/><path class="cls-4" d="M230.86,384.06a7.09,7.09,0,0,1-2.89-1.19,2.6,2.6,0,0,1-1-1.94,2.76,2.76,0,0,1,.94-2.28,4.26,4.26,0,0,1,2.73-1,4.65,4.65,0,0,1,2.11.32,3.42,3.42,0,0,1,1.5,1.16,3.19,3.19,0,0,1,.61,1.71l-1.5.09a2.09,2.09,0,0,0-.76-1.58,2.64,2.64,0,0,0-1.88-.48,2.7,2.7,0,0,0-1.7.6,1.65,1.65,0,0,0-.54,1.39,1.47,1.47,0,0,0,.67,1.14,5.52,5.52,0,0,0,2,.75,9.23,9.23,0,0,1,2.27.75,3.39,3.39,0,0,1,1.26,1,2.92,2.92,0,0,1,.48,1.48,2.69,2.69,0,0,1-.94,2.28,4.65,4.65,0,0,1-2.83,1,5.26,5.26,0,0,1-2.21-.32,3.58,3.58,0,0,1-1.64-1.13,3,3,0,0,1-.66-1.73l1.51-.1a1.94,1.94,0,0,0,.86,1.58,3.12,3.12,0,0,0,2.06.47,2.93,2.93,0,0,0,1.79-.59,1.57,1.57,0,0,0,.55-1.36,1.51,1.51,0,0,0-.66-1.25A6.74,6.74,0,0,0,230.86,384.06Z"/><path class="cls-4" d="M248.31,382.13a7.11,7.11,0,0,1-.22,3,4.28,4.28,0,0,1-1.37,2.08,4.67,4.67,0,0,1-4.75.55,4.34,4.34,0,0,1-1.82-1.69,6.73,6.73,0,0,1-.92-2.74l-.09-.82a6.9,6.9,0,0,1,.23-2.94,4.48,4.48,0,0,1,6.14-2.66,4.26,4.26,0,0,1,1.82,1.71,7.09,7.09,0,0,1,.9,2.84Zm-1.57-.56a5.08,5.08,0,0,0-1.16-3,2.72,2.72,0,0,0-2.39-.81,2.66,2.66,0,0,0-2.1,1.33,5,5,0,0,0-.48,3.09l.09.83a5.19,5.19,0,0,0,1.18,3,2.9,2.9,0,0,0,4.5-.46,5.1,5.1,0,0,0,.46-3.11Z"/><path class="cls-4" d="M262.7,385.13l-1.49.26-7.16-7.63,1.53,8.63-1.49.26-2-11.2,1.49-.26,7.18,7.67-1.53-8.67,1.47-.26Z"/><path class="cls-4" d="M276.23,369.5l-1.2.33-2.54-1.7,1.69-.45Zm3.83,8.45-4.6,1.23-.27,3.15-1.5.4L275,370.62l1.27-.34,7.14,9.87-1.49.4Zm-4.48-.07,3.74-1-3.25-4.64Z"/><path class="cls-4" d="M296.91,373.63l-.1-9.93,1.54-.55-.13,12.13-1.25.45-7.8-9.29,1.54-.56Z"/><path class="cls-4" d="M310.23,364.87l-4.55,1.9,1.56,3.72,5.28-2.21.47,1.14-6.66,2.78-4.39-10.49,6.59-2.76.47,1.13-5.21,2.18,1.42,3.38,4.54-1.9Zm-5.61-7.69,1.62-.67-1.05,2.92-1.07.45Z"/><path class="cls-4" d="M318.17,365.69l4.87-2.32.53,1.1-6.23,3-4.9-10.26,1.36-.65Z"/><path class="cls-4" d="M332.41,353.77a6.93,6.93,0,0,1,.89,2.83,4.32,4.32,0,0,1-.49,2.44,4.43,4.43,0,0,1-1.81,1.72,4.38,4.38,0,0,1-2.41.55,4.31,4.31,0,0,1-2.31-.89,6.64,6.64,0,0,1-1.87-2.21l-.39-.72a6.85,6.85,0,0,1-.87-2.82,4.23,4.23,0,0,1,2.28-4.19,4.39,4.39,0,0,1,2.43-.56,4.29,4.29,0,0,1,2.33.92,7.07,7.07,0,0,1,1.88,2.3Zm-1.66.06a5.12,5.12,0,0,0-2.19-2.34,2.66,2.66,0,0,0-2.52.13,2.64,2.64,0,0,0-1.45,2,5,5,0,0,0,.69,3.05l.4.73a5.11,5.11,0,0,0,2.19,2.32,2.88,2.88,0,0,0,4-2.09,5.09,5.09,0,0,0-.72-3.06Z"/><path class="cls-4" d="M212.8,109a16.25,16.25,0,0,1-7,1.66,12.18,12.18,0,0,1-6.67-1.85,7.77,7.77,0,0,1-3.75-7.88c.7-5,4.07-7.94,7.25-9.72A14.43,14.43,0,0,1,209,89.63c2,0,3.88.57,4.83,2.09a4.11,4.11,0,0,1,.64,2.1c0,2.86-2.86,6.17-7.57,8.46a26,26,0,0,1-5.91,2.16,4.73,4.73,0,0,0,2.86,3.88,7,7,0,0,0,2.93.63,12.72,12.72,0,0,0,5.59-1.72,12.88,12.88,0,0,0,5.34-5.27.6.6,0,0,1,1-.13,1.24,1.24,0,0,1,0,1.4A12.24,12.24,0,0,1,212.8,109Zm-11.51-10.1a14.63,14.63,0,0,0-.51,3.75,11.7,11.7,0,0,0,5.79-2.35,9.71,9.71,0,0,0,3.24-6.49,2.1,2.1,0,0,0-1.08-2.1C206.38,90.64,202.63,93,201.29,98.91Z"/><path class="cls-4" d="M240.58,108.06c-1.28,1.21-3.5,3-5.79,2.42A5.42,5.42,0,0,1,231,104c.57-3.11,2-8.58,2.22-9.41s.57-2.35-.44-2.67-4.13,2-6.55,6.17a71.9,71.9,0,0,0-4.77,11.06c-.25.83-1.4,1-2.41,1s-2.48.19-2.42-1,.32-5.85.95-10.17,1.59-7.82,2.23-8.45,1.53-.45,2.35-.45,2,.45,1.78,1.4-2,8.9-2.22,9.79c-.13.51.06.83.25.83s.51-.13.7-.51a54,54,0,0,1,3.81-6.68c1.91-2.73,4.64-5.72,7.57-5,2.73.76,3.5,3.5,3.5,5.09,0,2-1.34,8-1.66,10-.12.83-.63,3.31.19,3.56,1.08.25,2.61-.83,3.94-2.35a17.59,17.59,0,0,0,2.74-4,.76.76,0,0,1,1.14-.44c.26.19.38.57.13,1.27A17.86,17.86,0,0,1,240.58,108.06Z"/><path class="cls-4" d="M304.55,100.61c-.2.51-.45,1-1,1h-13c-.57,0-1.14-.44-.95-1l.63-1.59c.19-.51.38-1,1-1h13c.51,0,1.14.45.95,1Z"/><path class="cls-4" d="M148.46,100.61c-.19.51-.44,1-1,1h-13c-.58,0-1.15-.44-1-1l.64-1.59c.19-.51.38-1,1-1h13c.51,0,1.15.45,1,1Z"/><path class="cls-1" d="M130.94,166.31h13.13c4.07,0,6.33,3.64,6.33,11.21s-7.48,9.87-10.06,9.87-9.4-6.54-9.4-8.09Z"/></svg>